<svg id='Rocket_League_24' width='24' height='24' viewBox='0 0 24 24' xmlns='http://www.w3.org/2000/svg' xmlns:xlink='http://www.w3.org/1999/xlink'><rect width='24' height='24' stroke='none' fill='#000000' opacity='0'/>


<g transform="matrix(0.42 0 0 0.42 12 12)" >
<g style="" >
<g transform="matrix(1 0 0 1 0.52 0.15)" >
<path style="stroke: none; stroke-width: 1; stroke-dasharray: none; stroke-linecap: butt; stroke-dashoffset: 0; stroke-linejoin: miter; stroke-miterlimit: 4; fill: rgb(255,255,255); fill-rule: nonzero; opacity: 1;" transform=" translate(-24.52, -24.15)" d="M 22.764 18.338 C 22.764 18.338 23.72 18.412000000000003 24.529 19.441000000000003 L 24.088 19.515000000000004 L 23.867 19.441000000000003 C 23.867 19.441 23.206 18.632 22.764 18.338 z M 21.294 22.897 L 20.853 21.793999999999997 L 20.706000000000003 21.793999999999997 L 19.971000000000004 22.676 C 20.485 23.118 21.294 22.897 21.294 22.897 z M 28.058 16.426 L 27.69 16.572999999999997 L 28.131 17.381999999999998 L 29.602 17.897 C 29.014 16.647 28.058 16.426 28.058 16.426 z M 23.867 17.971 C 24.308 18.486 24.749000000000002 19.221 24.749000000000002 19.221 C 25.484 18.486 27.028000000000002 18.192 29.014000000000003 18.265 C 26.22 17.676 23.867 17.971 23.867 17.971 z M 21.147 16.868 C 21.147 16.868 21.956 16.868 23.058999999999997 17.089 C 22.323999999999998 16.573999999999998 21.147 16.279999999999998 21.147 16.279999999999998 L 21.147 16.868 z M 27.911 20.912 L 26.661 22.015 L 27.617 22.309 L 28.573 21.28 L 28.058 21.059 L 27.911 20.912 L 27.911 20.912 z M 19.603 15.103 C 19.603 15.103 20.118000000000002 15.397 20.191000000000003 15.397 C 20.264000000000003 15.397 21.294000000000004 15.765 21.735000000000003 15.912 C 22.103 16.059 22.323000000000004 15.912 22.397000000000002 15.912 C 22.471 15.912 23.721000000000004 15.177000000000001 23.721000000000004 15.177000000000001 C 22.618000000000002 14.736 21.589000000000002 14.442000000000002 21.589000000000002 14.442000000000002 C 21.514 14.441 19.603 15.103 19.603 15.103 z M 27.103 15.765 C 27.029 15.618 26.882 15.618 26 15.471 C 25.191 15.397 24.456 15.324 24.309 15.324 C 24.162000000000003 15.324 24.088 15.398 24.088 15.398 C 24.088 15.398 23.647000000000002 15.692 23.279 15.913 C 22.911 16.134 22.838 16.207 22.764 16.354 C 22.689999999999998 16.428 22.910999999999998 16.721999999999998 22.910999999999998 16.721999999999998 L 23.499 17.456999999999997 C 23.573 17.456999999999997 23.793 17.603999999999996 23.793 17.603999999999996 C 23.793 17.603999999999996 24.968999999999998 17.529999999999994 25.705 17.456999999999997 L 27.616999999999997 17.456999999999997 C 27.691 17.456999999999997 27.616999999999997 17.162999999999997 27.47 16.794999999999998 C 27.323 16.5 27.103 15.765 27.103 15.765 z M 20.117 16.574 C 20.117 16.574 20.191000000000003 16.574 20.338 16.648000000000003 C 20.485 16.648000000000003 20.559 16.501000000000005 20.559 16.354000000000003 C 20.559 16.133000000000003 20.338 16.060000000000002 20.338 16.060000000000002 L 20.191000000000003 16.060000000000002 L 19.970000000000002 16.134000000000004 L 19.896 16.649000000000004 L 19.970000000000002 16.649000000000004 L 20.117 16.574 C 20.043 16.427000000000003 20.043 16.353 20.043 16.206000000000003 C 20.043 16.132 20.189999999999998 15.985000000000003 20.264 15.985000000000003 C 20.264 15.985000000000003 20.410999999999998 15.985000000000003 20.338 16.279000000000003 C 20.338 16.574 20.117 16.574 20.117 16.574 z M 32.544 22.382 L 31.955999999999996 23.191000000000003 L 31.955999999999996 23.265000000000004 L 32.76499999999999 23.265000000000004 C 32.911 22.75 32.544 22.382 32.544 22.382 z M 17.838 18.559 L 17.691000000000003 18.559 L 17.323000000000004 18.485 C 16.955000000000005 18.410999999999998 17.102000000000004 17.75 17.102000000000004 17.75 L 16.661000000000005 17.897 C 16.514000000000006 17.602999999999998 15.852000000000006 16.793999999999997 15.852000000000006 16.793999999999997 L 15.705000000000005 17.381999999999998 C 15.779000000000005 17.456 16.146000000000004 18.043999999999997 16.220000000000006 18.191 L 16 18.412 C 16 18.412 15.926 18.558999999999997 15.926 18.633 C 15.926 18.707 15.852 18.779999999999998 15.852 18.779999999999998 L 15.558 18.926999999999996 L 15.484 18.926999999999996 L 14.455 18.117999999999995 L 14.455 18.705999999999996 L 14.529 18.705999999999996 C 14.603 18.852999999999994 14.75 19.146999999999995 15.116999999999999 19.293999999999997 C 15.411 19.440999999999995 15.779 19.440999999999995 15.925999999999998 19.368 C 16.072999999999997 19.442 16.147 19.442 16.22 19.514999999999997 C 16.514 19.661999999999995 16.587999999999997 19.589 16.587999999999997 19.589 L 17.028999999999996 19.442 L 17.102999999999998 19.442 L 17.177 19.368 L 17.323999999999998 19.073999999999998 C 17.323999999999998 19.073999999999998 18.058999999999997 19.148 18.352999999999998 19.148 C 18.647 18.707 19.602999999999998 18.044999999999998 20.264999999999997 17.972 C 20.926999999999996 17.972 22.029999999999998 18.119 22.911999999999995 19.001 C 23.720999999999997 19.883000000000003 23.499999999999996 21.060000000000002 23.499999999999996 21.060000000000002 L 25.117999999999995 21.575000000000003 L 24.382999999999996 21.060000000000002 C 23.794999999999995 19.589000000000002 22.397999999999996 18.266000000000002 22.397999999999996 18.266000000000002 C 22.397999999999996 18.266000000000002 22.029999999999998 18.192 21.809999999999995 18.192 C 21.588999999999995 18.118 21.441999999999997 17.971 21.441999999999997 17.971 C 21.441999999999997 17.971 21.367999999999995 17.897 21.220999999999997 17.677 L 21.073999999999998 17.383 C 21.073999999999998 17.383 20.927 17.236 20.706 17.089 C 20.485 16.942 19.677 16.868 19.235 16.794999999999998 C 18.794 16.720999999999997 18.794 16.794999999999998 18.794 16.794999999999998 C 20.044 17.089 20.412 17.162999999999997 20.485 17.235999999999997 C 20.485 17.235999999999997 20.559 17.382999999999996 20.631999999999998 17.456999999999997 C 19.602999999999998 17.235999999999997 18.647 17.382999999999996 18.426 17.456999999999997 C 18.572999999999997 17.677999999999997 18.572999999999997 17.971999999999998 18.426 18.191999999999997 C 18.279 18.338 17.838 18.559 17.838 18.559 z M 31.808 23.853 L 32.028999999999996 24.809 C 32.028999999999996 24.809 32.24999999999999 24.588 32.47 24.294 C 32.690000000000005 24 32.763999999999996 23.706 32.763999999999996 23.706 L 31.881999999999994 23.78 L 31.808 23.853 z M 14.088 17.162 L 14.014 17.971 L 14.455 17.971 L 14.529 17.456 L 14.529 17.75 L 14.603 17.75 L 14.603 17.309 L 14.529 17.309 L 14.529 17.015 L 15.191 17.383 L 15.265 17.529999999999998 L 15.412 17.676999999999996 L 15.559000000000001 17.676999999999996 L 15.633000000000001 17.602999999999994 L 15.633000000000001 17.528999999999993 C 15.192 17.528999999999993 15.192 17.307999999999993 15.192 17.307999999999993 C 15.192 17.307999999999993 15.266 16.792999999999992 15.339 16.645999999999994 C 15.413 16.498999999999995 15.707 16.571999999999992 15.707 16.571999999999992 L 15.632 16.5 L 15.485 16.5 C 15.338 16.426 14.897 16.132 14.75 16.059 L 14.75 15.985000000000001 L 14.824 15.911000000000001 L 14.824 15.617 L 14.898 15.617 C 14.898 15.543000000000001 14.972 15.543000000000001 14.972 15.47 C 15.119 15.47 16.222 15.249 16.222 15.249 L 15.193000000000001 15.028 L 15.193000000000001 14.954 C 14.899000000000001 14.88 14.678 14.807 14.531 14.733 C 14.163 15.174000000000001 14.016 15.762 14.016 15.762 C 14.016 15.762 13.942 16.791 13.942 16.938 C 13.867 17.088 14.088 17.162 14.088 17.162 L 14.088 17.162 z M 31.367 22.971 L 31.514 23.192 L 31.588 23.118 L 32.176 22.383 L 32.176 22.308999999999997 C 31.882 22.309 31.367 22.971 31.367 22.971 z M 29.603 21.647 L 29.161 21.5 L 28.132 22.676 L 28.867 22.897 C 29.014 22.309 29.603 21.647 29.603 21.647 z M 31.147 23.338 C 30.779 24.073 30.852999999999998 24.588 30.852999999999998 24.588 L 31.220999999999997 23.779 L 31.220999999999997 23.632 C 31.294 23.632 31.22 23.485 31.147 23.338 z M 30.779 18.559 C 30.779 18.559 30.632 18.853 30.558 18.927 C 30.483999999999998 19.001 29.97 19.073999999999998 29.676 19.148 C 29.381999999999998 19.294999999999998 28.866999999999997 19.516 28.72 19.663 C 28.645999999999997 19.737000000000002 28.645999999999997 19.957 28.645999999999997 20.031 C 28.645999999999997 20.031 28.792999999999996 20.105 28.866999999999997 20.105 L 28.205 20.693 L 28.351999999999997 20.84 L 29.969999999999995 21.355 C 30.337999999999994 21.061 30.851999999999997 20.987000000000002 30.851999999999997 20.987000000000002 C 30.557999999999996 20.840000000000003 29.307999999999996 20.325000000000003 28.939999999999998 20.178 C 28.939999999999998 20.178 28.718999999999998 20.104 28.718999999999998 20.031000000000002 L 28.718999999999998 19.810000000000002 C 28.718999999999998 19.810000000000002 29.674999999999997 19.075000000000003 31.144999999999996 19.075000000000003 L 31.365999999999996 18.634000000000004 L 30.779 18.559 z M 31.735 25.029 L 31.441 24.147 L 31.366999999999997 24.147 L 30.926 24.956 L 31 25.029 C 31.367 25.176 31.735 25.029 31.735 25.029 z M 20.632 16.647 L 20.853 16.721 C 20.853 16.721 21 16.721 21 16.574 L 21 16.28 L 20.779 16.133000000000003 L 20.485 16.059 C 20.559 16.133000000000003 20.559 16.206 20.559 16.206 L 20.633000000000003 16.206 C 20.633000000000003 16.131999999999998 20.707000000000004 16.131999999999998 20.707000000000004 16.206 C 20.707000000000004 16.206 20.854000000000003 16.28 20.781000000000006 16.5 C 20.853 16.574 20.706 16.647 20.632 16.647 z M 19.97 20.691 C 19.455 21.647 19.823 22.308999999999997 19.823 22.308999999999997 L 20.485 21.352999999999998 L 20.485 21.206 L 19.97 20.691 z M 15.191 15.029 L 16.073 15.25 C 16.147000000000002 15.25 16.661 15.176 16.661 15.176 L 15.264000000000001 14.808 L 15.191 15.029 z M 15.706 14.809 C 16.881999999999998 14.956 17.102999999999998 15.177 17.102999999999998 15.177 C 17.102999999999998 15.177 17.543999999999997 15.103 17.764999999999997 15.103 C 17.397 14.809 15.779999999999998 14.294 15.779999999999998 14.294 C 15.779999999999998 14.294 15.706 14.515 15.706 14.809 z M 17.47 17.088 C 17.249 17.235 17.029 17.676000000000002 17.102 18.044 C 17.176000000000002 18.412 17.249 18.412 17.47 18.412 C 17.102 18.265 17.176 17.677 17.47 17.308999999999997 C 17.691 17.014999999999997 17.910999999999998 17.234999999999996 17.910999999999998 17.234999999999996 C 17.910999999999998 17.234999999999996 17.691 16.941 17.47 17.088 z M 12.25 27.971 C 11.294 27.971 10.190999999999999 28.339 10.853 29.368 C 16.294 38.705999999999996 22.029 40.912 24.456 42.089 C 25.559 41.574 27.323999999999998 40.765 29.456 39.295 C 30.706 38.486000000000004 30.559 37.236000000000004 30.265 36.427 C 28.72 32.603 20.264 28.265 12.25 27.971 z M 42.911 10.544 C 40.706 9 35.264 6.206 24.456 6.206 C 20.706 6.206 17.544 6.574000000000001 15.043999999999999 7.088 C 15.631999999999998 8.044 15.925999999999998 9.147 15.925999999999998 10.323 C 15.925999999999998 11.941 15.338 13.411000000000001 14.381999999999998 14.514 C 14.602999999999998 14.588 14.896999999999998 14.661 15.263999999999998 14.735 L 15.410999999999998 14.366999999999999 C 15.410999999999998 14.366999999999999 15.557999999999998 14.366999999999999 15.631999999999998 14.440999999999999 C 15.631999999999998 14.072999999999999 15.852999999999998 14.072999999999999 15.852999999999998 14.072999999999999 C 15.852999999999998 14.072999999999999 15.852999999999998 13.998999999999999 15.926999999999998 13.998999999999999 C 16.294999999999998 14.072999999999999 17.323999999999998 14.586999999999998 17.764999999999997 14.807999999999998 C 18.205999999999996 15.028999999999998 18.205999999999996 15.101999999999999 18.205999999999996 15.101999999999999 C 18.205999999999996 15.101999999999999 19.234999999999996 15.101999999999999 19.529999999999998 15.027999999999999 C 19.823999999999998 15.027999999999999 20.339 14.806999999999999 21.073999999999998 14.586999999999998 C 21.808999999999997 14.365999999999998 21.956 14.292999999999997 22.102999999999998 14.292999999999997 C 22.249999999999996 14.292999999999997 23.573999999999998 14.366999999999997 24.749999999999996 14.513999999999998 C 25.925999999999995 14.660999999999998 27.028999999999996 15.101999999999997 27.249999999999996 15.248999999999997 L 27.617999999999995 15.322999999999997 L 27.691999999999997 15.101999999999997 L 27.103999999999996 14.880999999999997 C 27.103999999999996 14.880999999999997 27.177999999999997 14.512999999999996 27.177999999999997 14.439999999999996 C 27.177999999999997 14.366999999999996 27.252 14.292999999999996 27.324999999999996 14.292999999999996 C 27.397999999999993 14.292999999999996 28.059999999999995 14.439999999999996 28.280999999999995 14.513999999999996 C 28.501999999999995 14.587999999999996 29.236999999999995 15.101999999999995 29.309999999999995 15.101999999999995 C 29.382999999999996 15.101999999999995 29.383999999999997 15.175999999999995 29.383999999999997 15.175999999999995 C 29.383999999999997 15.322999999999995 29.237 15.616999999999996 29.237 15.616999999999996 L 29.016 15.542999999999996 L 29.237 15.616999999999996 C 29.237 15.616999999999996 29.458 15.690999999999995 29.531 15.763999999999996 C 29.605 15.837999999999996 29.825 15.984999999999996 30.046 16.204999999999995 C 30.267 16.351999999999993 30.192999999999998 16.572999999999993 30.192999999999998 16.572999999999993 L 30.708 17.087999999999994 L 30.708 17.308999999999994 L 31.958 18.558999999999994 L 31.958 18.632999999999996 L 31.367 19 C 31.367 19 32.176 18.926 32.764 19.221 C 33.352000000000004 19.515 33.426 19.662 33.426 19.809 C 33.279 19.883000000000003 33.058 19.956 33.058 19.956 C 32.617 20.102999999999998 31.514 20.838 31.514 20.838 L 31.514 20.912000000000003 L 32.102 21.059 C 32.763999999999996 20.471 33.94 20.25 34.82299999999999 20.397000000000002 C 37.837999999999994 20.985000000000003 39.89699999999999 22.971000000000004 40.337999999999994 24.662000000000003 C 40.337999999999994 24.736000000000004 40.41199999999999 24.883000000000003 40.41199999999999 24.956000000000003 C 43.426 17.897 43.132 12.824 42.911 10.544 L 42.911 10.544 z M 32.323 21.279 C 32.397 21.353 32.47 21.353 32.544 21.426 C 32.985 21.72 33.205999999999996 21.866999999999997 33.278999999999996 22.529 C 33.352999999999994 23.044 33.205 23.779 32.837999999999994 24.441 C 34.89699999999999 25.837999999999997 37.763999999999996 24.735 38.86699999999999 25.837999999999997 C 38.647 23.044 34.529 20.25 32.323 21.279 z M 15.411 17.676 L 15.264 17.75 L 15.264 18.338 L 15.411 18.264 L 15.411 17.676 z M 36.661 26.794 C 35.117000000000004 26.794 33.573 26.279 32.47 24.956 L 32.47 25.03 C 31.808 25.912000000000003 31.073 25.912000000000003 30.779 25.912000000000003 C 30.485 25.912000000000003 29.529 25.471000000000004 29.161 25.03 C 28.793000000000003 24.589000000000002 28.793000000000003 23.78 28.793000000000003 23.78 L 27.322000000000003 23.265 L 25.484 22.236 L 25.19 22.162 C 24.602 22.456 23.866 22.236 23.205000000000002 21.721 C 23.131 22.015 22.764000000000003 22.75 22.323 23.118 C 21.881999999999998 23.485999999999997 21 24 20.338 24 C 19.676000000000002 24 18.206 23.265 17.764000000000003 22.235 C 17.323000000000004 21.206 17.764000000000003 20.102999999999998 17.764000000000003 20.102999999999998 L 17.029000000000003 19.956 L 16.735000000000003 19.588 C 16.735000000000003 19.588 15.853000000000003 20.323 14.897000000000002 20.029 C 13.941 19.735 13.132000000000001 18.926 12.912000000000003 18.191 C 12.765000000000002 17.456 12.986000000000002 16.794 13.059000000000003 16.72 C 12.912000000000003 16.205 12.912000000000003 15.911 12.912000000000003 15.911 L 12.838000000000003 15.911 L 12.838000000000003 15.69 C 11.882000000000003 16.352 10.779000000000003 16.646 9.603000000000003 16.646 C 8.279000000000003 16.646 7.0290000000000035 16.205000000000002 6.0000000000000036 15.543000000000001 C 6.147000000000004 17.161 6.588000000000004 19.072000000000003 7.176000000000004 21.205000000000002 C 7.985000000000004 24.146 10.632000000000003 25.102 14.602000000000004 25.764000000000003 C 23.352000000000004 27.161 31.734000000000005 33.852000000000004 31.146000000000004 37.97 C 33.352000000000004 36.132 35.705000000000005 33.411 38.05800000000001 29.366999999999997 C 39.014 27.824 38.132 26.794 36.661 26.794 z M 13.279 16.647 L 13.205 17.456 L 13.72 17.456 L 13.72 17.381999999999998 L 13.646 17.381999999999998 L 13.646 17.307999999999996 L 13.572000000000001 17.307999999999996 L 13.646 17.160999999999998 L 13.72 16.793 L 13.646 16.718999999999998 L 13.646 16.572 L 13.72 16.5 L 13.794 15.618 L 13.426 15.397 C 13.573 14.809000000000001 13.941 14.294 13.941 14.294 L 13.72 14.294 C 13.352 14.735000000000001 13.205 15.323 13.205 15.323 C 13.205 15.323 13.131 16.279 13.131 16.426000000000002 C 13.132 16.647 13.279 16.647 13.279 16.647 z M 21.367 21.574 L 21.735 22.75 C 22.47 22.235 22.617 21.426 22.617 21.426 L 21.441 21.5 L 21.367 21.574 z M 22.029 19.735 L 21.441 20.764 L 21.515 20.838 L 22.691 20.912000000000003 C 22.691 20.103 22.029 19.735 22.029 19.735 z M 14.676 17.456 L 14.602 17.897 L 14.676 17.897 L 14.676 17.456 z M 20.264 20.25 L 20.852 20.691 L 21 20.618 L 21.662 19.589 C 20.853 19.515 20.264 20.25 20.264 20.25 z M 14.823 17.529 L 14.749 17.455 L 14.749 17.97 L 14.823 17.97 L 14.823 17.529 z M 15.044 17.676 L 14.97 18.191 L 15.044 18.191 L 15.044 17.676 z M 15.191 17.75 L 15.117 18.265 L 15.191 18.265 L 15.191 17.75 z M 14.897 17.603 L 14.823 18.118000000000002 L 14.897 18.118000000000002 L 14.897 17.603 z" stroke-linecap="round" />
</g>
<g transform="matrix(1 0 0 1 0 0)" >
<path style="stroke: none; stroke-width: 1; stroke-dasharray: none; stroke-linecap: butt; stroke-dashoffset: 0; stroke-linejoin: miter; stroke-miterlimit: 4; fill: rgb(236,239,241); fill-rule: nonzero; opacity: 1;" transform=" translate(-24, -24)" d="M 44.676 10.397 L 44.602000000000004 9.588000000000001 L 43.867000000000004 9.073 C 40.779 6.941000000000001 34.896 4.441000000000001 24.382000000000005 4.441000000000001 C 20.411000000000005 4.441000000000001 16.808000000000007 4.809000000000001 13.647000000000006 5.5440000000000005 C 12.544 4.588 11.073 4 9.529 4 C 6.073 4 3.205 6.7940000000000005 3.205 10.324 C 3.205 11.427 3.499 12.456 4.014 13.411999999999999 C 4.1610000000000005 18.852999999999998 5.852 24.515 9.161000000000001 30.25 C 14.602 39.441 20.411 42.162 23.205000000000002 43.412 C 23.426000000000002 43.486 23.573 43.559 23.720000000000002 43.632999999999996 L 24.456 44 L 25.191 43.632 C 25.337999999999997 43.558 25.558999999999997 43.485 25.706 43.411 C 28.573999999999998 42.161 34.309 39.44 39.603 30.249000000000002 C 45.411 20.176 44.897 12.824 44.676 10.397 L 44.676 10.397 z" stroke-linecap="round" />
</g>
<g transform="matrix(1 0 0 1 3.62 -2.39)" >
<polygon style="stroke: none; stroke-width: 1; stroke-dasharray: none; stroke-linecap: butt; stroke-dashoffset: 0; stroke-linejoin: miter; stroke-miterlimit: 4; fill: rgb(30,136,229); fill-rule: nonzero; opacity: 1;" points="0.29,-0.7 0.29,-0.7 -0.96,0.4 0,0.7 0.96,-0.33 0.44,-0.55 " />
</g>
<g transform="matrix(1 0 0 1 4.87 -1.8)" >
<path style="stroke: none; stroke-width: 1; stroke-dasharray: none; stroke-linecap: butt; stroke-dashoffset: 0; stroke-linejoin: miter; stroke-miterlimit: 4; fill: rgb(30,136,229); fill-rule: nonzero; opacity: 1;" transform=" translate(-28.87, -22.2)" d="M 29.603 21.647 L 29.161 21.5 L 28.132 22.676 L 28.867 22.897 C 29.014 22.309 29.603 21.647 29.603 21.647 z" stroke-linecap="round" />
</g>
<g transform="matrix(1 0 0 1 2.44 -5.44)" >
<path style="stroke: none; stroke-width: 1; stroke-dasharray: none; stroke-linecap: butt; stroke-dashoffset: 0; stroke-linejoin: miter; stroke-miterlimit: 4; fill: rgb(30,136,229); fill-rule: nonzero; opacity: 1;" transform=" translate(-26.44, -18.56)" d="M 23.867 17.971 C 24.308 18.486 24.749000000000002 19.221 24.749000000000002 19.221 C 25.484 18.486 27.028000000000002 18.192 29.014000000000003 18.265 C 26.22 17.676 23.867 17.971 23.867 17.971 z" stroke-linecap="round" />
</g>
<g transform="matrix(1 0 0 1 6.01 -4.68)" >
<path style="stroke: none; stroke-width: 1; stroke-dasharray: none; stroke-linecap: butt; stroke-dashoffset: 0; stroke-linejoin: miter; stroke-miterlimit: 4; fill: rgb(30,136,229); fill-rule: nonzero; opacity: 1;" transform=" translate(-30.01, -19.32)" d="M 30.779 18.559 C 30.779 18.559 30.632 18.853 30.558 18.927 C 30.483999999999998 19.001 29.97 19.073999999999998 29.676 19.148 C 29.381999999999998 19.294999999999998 28.866999999999997 19.516 28.72 19.663 C 28.645999999999997 19.737000000000002 28.645999999999997 19.957 28.645999999999997 20.031 C 28.645999999999997 20.031 28.691999999999997 20.052 28.746 20.072 C 28.732999999999997 20.058 28.72 20.044999999999998 28.72 20.031 L 28.72 19.81 C 28.72 19.81 29.676 19.075 31.146 19.075 L 31.367 18.634 L 30.779 18.559 z" stroke-linecap="round" />
</g>
<g transform="matrix(1 0 0 1 -1.9 -7.32)" >
<path style="stroke: none; stroke-width: 1; stroke-dasharray: none; stroke-linecap: butt; stroke-dashoffset: 0; stroke-linejoin: miter; stroke-miterlimit: 4; fill: rgb(30,136,229); fill-rule: nonzero; opacity: 1;" transform=" translate(-22.1, -16.68)" d="M 21.147 16.868 C 21.147 16.868 21.956 16.868 23.058999999999997 17.089 C 22.323999999999998 16.573999999999998 21.147 16.279999999999998 21.147 16.279999999999998 L 21.147 16.868 z" stroke-linecap="round" />
</g>
<g transform="matrix(1 0 0 1 -0.35 -5.07)" >
<path style="stroke: none; stroke-width: 1; stroke-dasharray: none; stroke-linecap: butt; stroke-dashoffset: 0; stroke-linejoin: miter; stroke-miterlimit: 4; fill: rgb(30,136,229); fill-rule: nonzero; opacity: 1;" transform=" translate(-23.65, -18.93)" d="M 23.867 19.441 L 24.088 19.515 L 24.529 19.441 C 23.72 18.412 22.764 18.337999999999997 22.764 18.337999999999997 C 23.206 18.632 23.867 19.441 23.867 19.441 z" stroke-linecap="round" />
</g>
<g transform="matrix(1 0 0 1 1.2 -7.54)" >
<path style="stroke: none; stroke-width: 1; stroke-dasharray: none; stroke-linecap: butt; stroke-dashoffset: 0; stroke-linejoin: miter; stroke-miterlimit: 4; fill: rgb(30,136,229); fill-rule: nonzero; opacity: 1;" transform=" translate(-25.2, -16.46)" d="M 27.103 15.765 C 27.029 15.618 26.882 15.618 26 15.471 C 25.191 15.397 24.456 15.324 24.309 15.324 C 24.162000000000003 15.324 24.088 15.398 24.088 15.398 C 24.088 15.398 23.647000000000002 15.692 23.279 15.913 C 22.911 16.134 22.838 16.207 22.764 16.354 C 22.689999999999998 16.428 22.910999999999998 16.721999999999998 22.910999999999998 16.721999999999998 L 23.499 17.456999999999997 C 23.573 17.456999999999997 23.793 17.603999999999996 23.793 17.603999999999996 C 23.793 17.603999999999996 24.968999999999998 17.530999999999995 25.705 17.456999999999997 L 27.616999999999997 17.456999999999997 C 27.691 17.456999999999997 27.616999999999997 17.162999999999997 27.47 16.794999999999998 C 27.323 16.5 27.103 15.765 27.103 15.765 z" stroke-linecap="round" />
</g>
<g transform="matrix(1 0 0 1 4.81 -3.9)" >
<path style="stroke: none; stroke-width: 1; stroke-dasharray: none; stroke-linecap: butt; stroke-dashoffset: 0; stroke-linejoin: miter; stroke-miterlimit: 4; fill: rgb(30,136,229); fill-rule: nonzero; opacity: 1;" transform=" translate(-28.81, -20.1)" d="M 28.834 20.132 L 28.867 20.103 C 28.835 20.103 28.788 20.087000000000003 28.746000000000002 20.071 C 28.769 20.094 28.799 20.115 28.834 20.132 z" stroke-linecap="round" />
</g>
<g transform="matrix(1 0 0 1 -2.34 -8.79)" >
<path style="stroke: none; stroke-width: 1; stroke-dasharray: none; stroke-linecap: butt; stroke-dashoffset: 0; stroke-linejoin: miter; stroke-miterlimit: 4; fill: rgb(30,136,229); fill-rule: nonzero; opacity: 1;" transform=" translate(-21.66, -15.21)" d="M 19.603 15.103 C 19.603 15.103 20.118000000000002 15.397 20.191000000000003 15.397 C 20.264000000000003 15.397 21.294000000000004 15.765 21.735000000000003 15.912 C 22.103 16.059 22.323000000000004 15.912 22.397000000000002 15.912 C 22.471000000000004 15.912 23.721000000000004 15.177000000000001 23.721000000000004 15.177000000000001 C 22.618000000000002 14.736 21.589000000000002 14.442000000000002 21.589000000000002 14.442000000000002 C 21.514 14.441 19.603 15.103 19.603 15.103 z" stroke-linecap="round" />
</g>
<g transform="matrix(1 0 0 1 -3.26 -7.61)" >
<path style="stroke: none; stroke-width: 1; stroke-dasharray: none; stroke-linecap: butt; stroke-dashoffset: 0; stroke-linejoin: miter; stroke-miterlimit: 4; fill: rgb(30,136,229); fill-rule: nonzero; opacity: 1;" transform=" translate(-20.74, -16.39)" d="M 20.632 16.647 L 20.853 16.721 C 20.853 16.721 21 16.721 21 16.574 L 21 16.28 L 20.779 16.133000000000003 L 20.485 16.059 C 20.559 16.133000000000003 20.559 16.206 20.559 16.206 L 20.632 16.206 C 20.632 16.131999999999998 20.706000000000003 16.131999999999998 20.706000000000003 16.206 C 20.706000000000003 16.206 20.853 16.28 20.780000000000005 16.5 C 20.853 16.573 20.706 16.647 20.632 16.647 z" stroke-linecap="round" />
</g>
<g transform="matrix(1 0 0 1 4.65 -6.84)" >
<path style="stroke: none; stroke-width: 1; stroke-dasharray: none; stroke-linecap: butt; stroke-dashoffset: 0; stroke-linejoin: miter; stroke-miterlimit: 4; fill: rgb(30,136,229); fill-rule: nonzero; opacity: 1;" transform=" translate(-28.65, -17.16)" d="M 27.691 16.573 L 28.131999999999998 17.382 L 29.602999999999998 17.897000000000002 C 29.014999999999997 16.647000000000002 28.058999999999997 16.426000000000002 28.058999999999997 16.426000000000002 L 27.691 16.573 z" stroke-linecap="round" />
</g>
<g transform="matrix(1 0 0 1 -4.21 -4.83)" >
<path style="stroke: none; stroke-width: 1; stroke-dasharray: none; stroke-linecap: butt; stroke-dashoffset: 0; stroke-linejoin: miter; stroke-miterlimit: 4; fill: rgb(30,136,229); fill-rule: nonzero; opacity: 1;" transform=" translate(-19.79, -19.17)" d="M 17.911 17.235 C 17.911 17.235 17.69 16.941 17.470000000000002 17.088 C 17.306 17.197000000000003 17.144000000000002 17.468 17.101000000000003 17.75 L 16.662000000000003 17.896 C 16.515000000000004 17.602 15.853000000000003 16.793 15.853000000000003 16.793 L 15.706000000000003 17.381 C 15.780000000000003 17.455000000000002 16.147000000000002 18.043 16.221000000000004 18.19 L 16 18.412 C 16 18.412 15.926 18.558999999999997 15.926 18.633 C 15.926 18.707 15.853 18.779999999999998 15.853 18.779999999999998 L 15.559 18.926999999999996 L 15.485 18.926999999999996 L 14.456 18.117999999999995 L 14.456 18.705999999999996 L 14.53 18.705999999999996 C 14.604 18.852999999999994 14.751 19.146999999999995 15.117999999999999 19.293999999999997 C 15.411999999999999 19.440999999999995 15.78 19.440999999999995 15.926999999999998 19.366999999999997 C 16.073999999999998 19.441 16.147999999999996 19.441 16.220999999999997 19.513999999999996 C 16.514999999999997 19.660999999999994 16.588999999999995 19.586999999999996 16.588999999999995 19.586999999999996 L 17.029999999999994 19.439999999999998 L 17.103999999999996 19.439999999999998 L 17.176999999999996 19.365999999999996 L 17.323999999999995 19.071999999999996 C 17.323999999999995 19.071999999999996 18.058999999999994 19.145999999999997 18.352999999999994 19.145999999999997 C 18.646999999999995 18.705 19.602999999999994 18.042999999999996 20.264999999999993 17.97 C 20.926999999999992 17.97 22.029999999999994 18.116999999999997 22.911999999999992 18.999 C 23.720999999999993 19.881 23.499999999999993 21.058 23.499999999999993 21.058 L 25.11799999999999 21.573 L 24.382999999999992 21.058 C 23.79499999999999 19.587 22.397999999999993 18.264 22.397999999999993 18.264 C 22.397999999999993 18.264 22.029999999999994 18.189999999999998 21.80999999999999 18.189999999999998 C 21.58899999999999 18.115999999999996 21.441999999999993 17.968999999999998 21.441999999999993 17.968999999999998 C 21.441999999999993 17.968999999999998 21.36799999999999 17.894999999999996 21.220999999999993 17.674999999999997 L 21.073999999999995 17.380999999999997 C 21.073999999999995 17.380999999999997 20.926999999999996 17.233999999999998 20.705999999999996 17.086999999999996 C 20.484999999999996 16.939999999999998 19.676999999999996 16.865999999999996 19.234999999999996 16.792999999999996 C 18.793999999999997 16.719999999999995 18.793999999999997 16.792999999999996 18.793999999999997 16.792999999999996 C 20.043999999999997 17.086999999999996 20.411999999999995 17.160999999999994 20.484999999999996 17.233999999999995 C 20.484999999999996 17.233999999999995 20.558999999999997 17.380999999999993 20.631999999999994 17.454999999999995 C 19.602999999999994 17.233999999999995 18.646999999999995 17.380999999999993 18.425999999999995 17.454999999999995 C 18.572999999999993 17.675999999999995 18.572999999999993 17.969999999999995 18.425999999999995 18.189999999999994 C 18.278999999999996 18.336999999999993 17.837999999999994 18.557999999999993 17.837999999999994 18.557999999999993 L 17.690999999999995 18.557999999999993 L 17.322999999999997 18.484999999999992 C 16.990999999999996 18.418999999999993 17.077999999999996 17.877999999999993 17.097999999999995 17.77199999999999 C 17.085999999999995 17.862999999999992 17.084999999999994 17.955999999999992 17.101999999999997 18.04399999999999 C 17.174999999999997 18.41199999999999 17.248999999999995 18.41199999999999 17.469999999999995 18.41199999999999 C 17.101999999999997 18.26499999999999 17.175999999999995 17.67699999999999 17.469999999999995 17.308999999999987 C 17.691 17.015 17.911 17.235 17.911 17.235 z" stroke-linecap="round" />
</g>
<g transform="matrix(1 0 0 1 -8.66 -5.99)" >
<polygon style="stroke: none; stroke-width: 1; stroke-dasharray: none; stroke-linecap: butt; stroke-dashoffset: 0; stroke-linejoin: miter; stroke-miterlimit: 4; fill: rgb(30,136,229); fill-rule: nonzero; opacity: 1;" points="-0.07,0.33 0.07,0.26 0.07,-0.33 -0.07,-0.26 " />
</g>
<g transform="matrix(1 0 0 1 -8.71 -7.65)" >
<path style="stroke: none; stroke-width: 1; stroke-dasharray: none; stroke-linecap: butt; stroke-dashoffset: 0; stroke-linejoin: miter; stroke-miterlimit: 4; fill: rgb(30,136,229); fill-rule: nonzero; opacity: 1;" transform=" translate(-15.29, -16.35)" d="M 14.529 14.735 C 14.161 15.176 14.014 15.764 14.014 15.764 C 14.014 15.764 13.94 16.793 13.94 16.939999999999998 C 13.866 17.086999999999996 14.087 17.160999999999998 14.087 17.160999999999998 L 14.087 17.160999999999998 L 14.013 17.97 L 14.454 17.97 L 14.528 17.455 L 14.528 17.749 L 14.602 17.749 L 14.602 17.308 L 14.528 17.308 L 14.528 17.014 L 15.190000000000001 17.381999999999998 L 15.264000000000001 17.528999999999996 L 15.411000000000001 17.675999999999995 L 15.558000000000002 17.675999999999995 L 15.631000000000002 17.601999999999993 L 15.631000000000002 17.528999999999993 C 15.190000000000001 17.528999999999993 15.190000000000001 17.307999999999993 15.190000000000001 17.307999999999993 C 15.190000000000001 17.307999999999993 15.264000000000001 16.792999999999992 15.337000000000002 16.645999999999994 C 15.410000000000002 16.498999999999995 15.705000000000002 16.571999999999992 15.705000000000002 16.571999999999992 L 15.632 16.5 L 15.485 16.5 C 15.338 16.426 14.897 16.132 14.75 16.059 L 14.75 15.985000000000001 L 14.824 15.911000000000001 L 14.824 15.617 L 14.897 15.617 C 14.897 15.544 14.971 15.544 14.971 15.47 C 15.118 15.47 16.221 15.249 16.221 15.249 L 16.176 15.239 C 16.346999999999998 15.22 16.662 15.175 16.662 15.175 L 15.264999999999999 14.807 L 15.190999999999999 15.028 L 15.190999999999999 14.954 C 14.897 14.882 14.676 14.809 14.529 14.735 z" stroke-linecap="round" />
</g>
<g transform="matrix(1 0 0 1 8.38 -1.18)" >
<path style="stroke: none; stroke-width: 1; stroke-dasharray: none; stroke-linecap: butt; stroke-dashoffset: 0; stroke-linejoin: miter; stroke-miterlimit: 4; fill: rgb(30,136,229); fill-rule: nonzero; opacity: 1;" transform=" translate(-32.38, -22.82)" d="M 32.544 22.382 L 31.955999999999996 23.191000000000003 L 31.955999999999996 23.265000000000004 L 32.76499999999999 23.265000000000004 C 32.911 22.75 32.544 22.382 32.544 22.382 z" stroke-linecap="round" />
</g>
<g transform="matrix(1 0 0 1 7.33 0.62)" >
<path style="stroke: none; stroke-width: 1; stroke-dasharray: none; stroke-linecap: butt; stroke-dashoffset: 0; stroke-linejoin: miter; stroke-miterlimit: 4; fill: rgb(30,136,229); fill-rule: nonzero; opacity: 1;" transform=" translate(-31.33, -24.62)" d="M 31.735 25.029 L 31.441 24.147 L 31.366999999999997 24.147 L 30.926 24.956 L 31 25.029 C 31.367 25.176 31.735 25.029 31.735 25.029 z" stroke-linecap="round" />
</g>
<g transform="matrix(1 0 0 1 5.53 -3.26)" >
<path style="stroke: none; stroke-width: 1; stroke-dasharray: none; stroke-linecap: butt; stroke-dashoffset: 0; stroke-linejoin: miter; stroke-miterlimit: 4; fill: rgb(30,136,229); fill-rule: nonzero; opacity: 1;" transform=" translate(-29.53, -20.74)" d="M 28.353 20.838 L 29.971 21.353 C 30.339 21.059 30.853 20.985000000000003 30.853 20.985000000000003 C 30.559 20.838000000000005 29.309 20.323000000000004 28.941000000000003 20.176000000000002 C 28.941000000000003 20.176000000000002 28.888 20.158 28.835 20.132 L 28.206 20.691000000000003 L 28.353 20.838 z" stroke-linecap="round" />
</g>
<g transform="matrix(1 0 0 1 7.05 -0.04)" >
<path style="stroke: none; stroke-width: 1; stroke-dasharray: none; stroke-linecap: butt; stroke-dashoffset: 0; stroke-linejoin: miter; stroke-miterlimit: 4; fill: rgb(30,136,229); fill-rule: nonzero; opacity: 1;" transform=" translate(-31.05, -23.96)" d="M 31.147 23.338 C 30.779 24.073 30.852999999999998 24.588 30.852999999999998 24.588 L 31.220999999999997 23.779 L 31.220999999999997 23.632 C 31.294 23.632 31.22 23.485 31.147 23.338 z" stroke-linecap="round" />
</g>
<g transform="matrix(1 0 0 1 8.29 0.26)" >
<path style="stroke: none; stroke-width: 1; stroke-dasharray: none; stroke-linecap: butt; stroke-dashoffset: 0; stroke-linejoin: miter; stroke-miterlimit: 4; fill: rgb(30,136,229); fill-rule: nonzero; opacity: 1;" transform=" translate(-32.29, -24.26)" d="M 31.808 23.853 L 32.028999999999996 24.809 C 32.028999999999996 24.809 32.24999999999999 24.588 32.47 24.294 C 32.690999999999995 24 32.763999999999996 23.706 32.763999999999996 23.706 L 31.881999999999994 23.78 L 31.808 23.853 z" stroke-linecap="round" />
</g>
<g transform="matrix(1 0 0 1 7.77 -1.25)" >
<path style="stroke: none; stroke-width: 1; stroke-dasharray: none; stroke-linecap: butt; stroke-dashoffset: 0; stroke-linejoin: miter; stroke-miterlimit: 4; fill: rgb(30,136,229); fill-rule: nonzero; opacity: 1;" transform=" translate(-31.77, -22.75)" d="M 31.367 22.971 L 31.514 23.192 L 31.588 23.118 L 32.176 22.383 L 32.176 22.31 C 31.882 22.309 31.367 22.971 31.367 22.971 z" stroke-linecap="round" />
</g>
<g transform="matrix(1 0 0 1 -3.77 -7.97)" >
<path style="stroke: none; stroke-width: 1; stroke-dasharray: none; stroke-linecap: butt; stroke-dashoffset: 0; stroke-linejoin: miter; stroke-miterlimit: 4; fill: rgb(30,136,229); fill-rule: nonzero; opacity: 1;" transform=" translate(-20.23, -16.03)" d="M 20.338 16.059 C 20.338 16.059 20.341 16.060000000000002 20.341 16.060000000000002 C 20.315 15.993000000000002 20.264 15.985000000000003 20.264 15.985000000000003 C 20.223 15.985000000000003 20.165 16.030000000000005 20.117 16.083000000000002 L 20.19 16.058000000000003 L 20.338 16.058000000000003 z" stroke-linecap="round" />
</g>
<g transform="matrix(1 0 0 1 -7.26 -9.26)" >
<path style="stroke: none; stroke-width: 1; stroke-dasharray: none; stroke-linecap: butt; stroke-dashoffset: 0; stroke-linejoin: miter; stroke-miterlimit: 4; fill: rgb(30,136,229); fill-rule: nonzero; opacity: 1;" transform=" translate(-16.74, -14.74)" d="M 15.706 14.809 C 16.881999999999998 14.956 17.102999999999998 15.177 17.102999999999998 15.177 C 17.102999999999998 15.177 17.543999999999997 15.103 17.764999999999997 15.103 C 17.397 14.809 15.779999999999998 14.294 15.779999999999998 14.294 C 15.779999999999998 14.294 15.706 14.515 15.706 14.809 z" stroke-linecap="round" />
</g>
<g transform="matrix(1 0 0 1 -3.99 -7.64)" >
<path style="stroke: none; stroke-width: 1; stroke-dasharray: none; stroke-linecap: butt; stroke-dashoffset: 0; stroke-linejoin: miter; stroke-miterlimit: 4; fill: rgb(30,136,229); fill-rule: nonzero; opacity: 1;" transform=" translate(-20.01, -16.36)" d="M 20.117 16.083 L 19.970000000000002 16.131999999999998 L 19.896 16.647 L 19.970000000000002 16.647 L 20.117 16.572999999999997 C 20.044 16.426 20.044 16.351999999999997 20.044 16.205 C 20.044 16.173 20.079 16.126 20.117 16.083 z" stroke-linecap="round" />
</g>
<g transform="matrix(1 0 0 1 -10.54 -7.56)" >
<path style="stroke: none; stroke-width: 1; stroke-dasharray: none; stroke-linecap: butt; stroke-dashoffset: 0; stroke-linejoin: miter; stroke-miterlimit: 4; fill: rgb(30,136,229); fill-rule: nonzero; opacity: 1;" transform=" translate(-13.46, -16.44)" d="M 13.132 16.426 C 13.132 16.647 13.279 16.647 13.279 16.647 L 13.205 17.456 L 13.72 17.456 L 13.72 17.381999999999998 L 13.646 17.381999999999998 L 13.646 17.308999999999997 L 13.573 17.308999999999997 L 13.646 17.162 L 13.72 16.794 L 13.646 16.72 L 13.646 16.573 L 13.72 16.5 L 13.794 15.618 L 13.461 15.418000000000001 C 13.369 15.488000000000001 13.279 15.561000000000002 13.183 15.626000000000001 C 13.161 15.919 13.132 16.334 13.132 16.426 z" stroke-linecap="round" />
</g>
<g transform="matrix(1 0 0 1 -8.85 -5.99)" >
<polygon style="stroke: none; stroke-width: 1; stroke-dasharray: none; stroke-linecap: butt; stroke-dashoffset: 0; stroke-linejoin: miter; stroke-miterlimit: 4; fill: rgb(30,136,229); fill-rule: nonzero; opacity: 1;" points="-0.04,0.26 0.04,0.26 0.04,-0.26 " />
</g>
<g transform="matrix(1 0 0 1 -8.99 -6.07)" >
<polygon style="stroke: none; stroke-width: 1; stroke-dasharray: none; stroke-linecap: butt; stroke-dashoffset: 0; stroke-linejoin: miter; stroke-miterlimit: 4; fill: rgb(30,136,229); fill-rule: nonzero; opacity: 1;" points="-0.04,0.26 0.04,0.26 0.04,-0.26 " />
</g>
<g transform="matrix(1 0 0 1 4.7 -8.69)" >
<path style="stroke: none; stroke-width: 1; stroke-dasharray: none; stroke-linecap: butt; stroke-dashoffset: 0; stroke-linejoin: miter; stroke-miterlimit: 4; fill: rgb(30,136,229); fill-rule: nonzero; opacity: 1;" transform=" translate(-28.7, -15.31)" d="M 42.911 10.544 L 42.911 10.544 C 40.706 9 35.264 6.206 24.456 6.206 C 20.737 6.206 17.598 6.5680000000000005 15.107999999999999 7.0760000000000005 C 15.671 8.029 16 9.136 16 10.323 C 16 11.933 15.401 13.4 14.419 14.525 C 14.636000000000001 14.595 14.914 14.665000000000001 15.265 14.735000000000001 L 15.412 14.367 C 15.412 14.367 15.559000000000001 14.367 15.633000000000001 14.441 C 15.633000000000001 14.073 15.854000000000001 14.073 15.854000000000001 14.073 C 15.854000000000001 14.073 15.854000000000001 14 15.928 14 C 16.296 14.073 17.325 14.588 17.766000000000002 14.809 C 18.207 15.03 18.207 15.103 18.207 15.103 C 18.207 15.103 19.236 15.103 19.531000000000002 15.03 C 19.825000000000003 15.03 20.340000000000003 14.809 21.075000000000003 14.588999999999999 C 21.810000000000002 14.367999999999999 21.957000000000004 14.294999999999998 22.104000000000003 14.294999999999998 C 22.251 14.294999999999998 23.575000000000003 14.367999999999999 24.751 14.515999999999998 C 25.927 14.662999999999998 27.03 15.103999999999997 27.251 15.250999999999998 L 27.619 15.323999999999998 L 27.693 15.102999999999998 L 27.105 14.881999999999998 C 27.105 14.881999999999998 27.179000000000002 14.513999999999998 27.179000000000002 14.440999999999997 C 27.179000000000002 14.367999999999997 27.253000000000004 14.293999999999997 27.326 14.293999999999997 C 27.400000000000002 14.293999999999997 28.061 14.440999999999997 28.282 14.514999999999997 C 28.503 14.587999999999997 29.238 15.102999999999996 29.311 15.102999999999996 C 29.384 15.102999999999996 29.384 15.176999999999996 29.384 15.176999999999996 C 29.384 15.323999999999996 29.237000000000002 15.617999999999997 29.237000000000002 15.617999999999997 C 29.237000000000002 15.617999999999997 29.458000000000002 15.691999999999997 29.531000000000002 15.764999999999997 C 29.604000000000003 15.837999999999997 29.825000000000003 15.985999999999997 30.046000000000003 16.205999999999996 C 30.267000000000003 16.352999999999994 30.193 16.573999999999995 30.193 16.573999999999995 L 30.708000000000002 17.088999999999995 L 30.708000000000002 17.309999999999995 L 31.958000000000002 18.559999999999995 L 31.958000000000002 18.633999999999997 L 31.367 19 C 31.367 19 32.176 18.926 32.764 19.221 C 33.352000000000004 19.515 33.426 19.662 33.426 19.809 C 33.279 19.883000000000003 33.058 19.956 33.058 19.956 C 32.617 20.102999999999998 31.514 20.838 31.514 20.838 L 31.514 20.912000000000003 L 32.102 21.059 C 32.763999999999996 20.471 33.94 20.25 34.82299999999999 20.397000000000002 C 37.687999999999995 20.956000000000003 39.672999999999995 22.775000000000002 40.242999999999995 24.406000000000002 C 43.013 17.657 43.126 12.758 42.911 10.544 z" stroke-linecap="round" />
</g>
<g transform="matrix(1 0 0 1 -1.77 2.79)" >
<path style="stroke: none; stroke-width: 1; stroke-dasharray: none; stroke-linecap: butt; stroke-dashoffset: 0; stroke-linejoin: miter; stroke-miterlimit: 4; fill: rgb(30,136,229); fill-rule: nonzero; opacity: 1;" transform=" translate(-22.23, -26.79)" d="M 36.661 26.794 C 35.117000000000004 26.794 33.573 26.279 32.47 24.956 L 32.47 25.03 C 31.808 25.912000000000003 31.073 25.912000000000003 30.779 25.912000000000003 C 30.485 25.912000000000003 29.529 25.471000000000004 29.161 25.03 C 28.793000000000003 24.589000000000002 28.793000000000003 23.78 28.793000000000003 23.78 L 27.322000000000003 23.265 L 25.484 22.236 L 25.19 22.162 C 24.602 22.456 23.866 22.236 23.205000000000002 21.721 C 23.131 22.015 22.764000000000003 22.75 22.323 23.118 C 21.882 23.485 21 24 20.338 24 C 19.676000000000002 24 18.206 23.265 17.764000000000003 22.235 C 17.322000000000006 21.205 17.764000000000003 20.102999999999998 17.764000000000003 20.102999999999998 L 17.029000000000003 19.956 L 16.735000000000003 19.588 C 16.735000000000003 19.588 15.853000000000003 20.323 14.897000000000002 20.029 C 13.941000000000003 19.735 13.132000000000001 18.926 12.912000000000003 18.191 C 12.765000000000002 17.456 12.986000000000002 16.794 13.059000000000003 16.72 C 12.912000000000003 16.205 12.912000000000003 15.911 12.912000000000003 15.911 L 12.839000000000002 15.911 L 12.839000000000002 15.834999999999999 C 11.889000000000003 16.394 10.786000000000001 16.72 9.604000000000003 16.72 C 8.271000000000003 16.72 7.035000000000003 16.311999999999998 6.010000000000003 15.614999999999998 C 6.163000000000003 17.218 6.597000000000003 19.102999999999998 7.177000000000003 21.205 C 7.986000000000003 24.145999999999997 10.633000000000003 25.101999999999997 14.604000000000003 25.764 C 23.354000000000003 27.160999999999998 31.736000000000004 33.852 31.148000000000003 37.97 C 33.354000000000006 36.132 35.707 33.411 38.06 29.366999999999997 C 39.014 27.823 38.132 26.794 36.661 26.794 z" stroke-linecap="round" />
</g>
<g transform="matrix(1 0 0 1 16.17 0.7)" >
<path style="stroke: none; stroke-width: 1; stroke-dasharray: none; stroke-linecap: butt; stroke-dashoffset: 0; stroke-linejoin: miter; stroke-miterlimit: 4; fill: rgb(30,136,229); fill-rule: nonzero; opacity: 1;" transform=" translate(-40.17, -24.7)" d="M 40 25 C 40 24.926 40.338 24.735 40.338 24.662 C 40.316 24.578 40.273 24.491999999999997 40.243 24.407 C 40.161 24.605 40.086 24.799 40 25 z" stroke-linecap="round" />
</g>
<g transform="matrix(1 0 0 1 11.59 -0.55)" >
<path style="stroke: none; stroke-width: 1; stroke-dasharray: none; stroke-linecap: butt; stroke-dashoffset: 0; stroke-linejoin: miter; stroke-miterlimit: 4; fill: rgb(30,136,229); fill-rule: nonzero; opacity: 1;" transform=" translate(-35.59, -23.45)" d="M 32.323 21.279 C 32.396 21.352 32.47 21.352 32.544 21.426 C 32.985 21.72 33.205999999999996 21.866999999999997 33.278999999999996 22.529 C 33.352 23.044 33.205 23.779 32.837999999999994 24.441 C 34.89699999999999 25.837999999999997 37.763999999999996 24.735 38.86699999999999 25.837999999999997 C 38.647 23.044 34.529 20.25 32.323 21.279 z" stroke-linecap="round" />
</g>
<g transform="matrix(1 0 0 1 -3.44 11.03)" >
<path style="stroke: none; stroke-width: 1; stroke-dasharray: none; stroke-linecap: butt; stroke-dashoffset: 0; stroke-linejoin: miter; stroke-miterlimit: 4; fill: rgb(30,136,229); fill-rule: nonzero; opacity: 1;" transform=" translate(-20.56, -35.03)" d="M 12.25 27.971 C 11.294 27.971 10.190999999999999 28.339 10.853 29.368 C 16.294 38.705999999999996 22.029 40.912 24.456 42.089 C 25.559 41.574 27.323999999999998 40.766 29.456 39.295 C 30.706 38.486000000000004 30.559 37.236000000000004 30.265 36.427 C 28.72 32.603 20.264 28.265 12.25 27.971 z" stroke-linecap="round" />
</g>
<g transform="matrix(1 0 0 1 -9.14 -6.14)" >
<polygon style="stroke: none; stroke-width: 1; stroke-dasharray: none; stroke-linecap: butt; stroke-dashoffset: 0; stroke-linejoin: miter; stroke-miterlimit: 4; fill: rgb(30,136,229); fill-rule: nonzero; opacity: 1;" points="0.04,0.26 0.04,-0.26 -0.04,0.26 " />
</g>
<g transform="matrix(1 0 0 1 -3.04 -3.86)" >
<path style="stroke: none; stroke-width: 1; stroke-dasharray: none; stroke-linecap: butt; stroke-dashoffset: 0; stroke-linejoin: miter; stroke-miterlimit: 4; fill: rgb(30,136,229); fill-rule: nonzero; opacity: 1;" transform=" translate(-20.96, -20.14)" d="M 20.264 20.25 L 20.852 20.691 L 21 20.618 L 21.662 19.589 C 20.853 19.515 20.264 20.25 20.264 20.25 z" stroke-linecap="round" />
</g>
<g transform="matrix(1 0 0 1 -3.37 -1.63)" >
<path style="stroke: none; stroke-width: 1; stroke-dasharray: none; stroke-linecap: butt; stroke-dashoffset: 0; stroke-linejoin: miter; stroke-miterlimit: 4; fill: rgb(30,136,229); fill-rule: nonzero; opacity: 1;" transform=" translate(-20.63, -22.37)" d="M 21.294 22.897 L 20.853 21.793999999999997 L 20.706000000000003 21.793999999999997 L 19.971000000000004 22.676 C 20.485 23.118 21.294 22.897 21.294 22.897 z" stroke-linecap="round" />
</g>
<g transform="matrix(1 0 0 1 -3.66 -7.65)" >
<path style="stroke: none; stroke-width: 1; stroke-dasharray: none; stroke-linecap: butt; stroke-dashoffset: 0; stroke-linejoin: miter; stroke-miterlimit: 4; fill: rgb(30,136,229); fill-rule: nonzero; opacity: 1;" transform=" translate(-20.34, -16.35)" d="M 20.341 16.06 C 20.358 16.102999999999998 20.366 16.163999999999998 20.338 16.279 C 20.338 16.573 20.117 16.573 20.117 16.573 C 20.117 16.573 20.191000000000003 16.573 20.338 16.647000000000002 C 20.485 16.647000000000002 20.559 16.500000000000004 20.559 16.353 C 20.558 16.138 20.352 16.064 20.341 16.06 z" stroke-linecap="round" />
</g>
<g transform="matrix(1 0 0 1 -3.91 -2.5)" >
<path style="stroke: none; stroke-width: 1; stroke-dasharray: none; stroke-linecap: butt; stroke-dashoffset: 0; stroke-linejoin: miter; stroke-miterlimit: 4; fill: rgb(30,136,229); fill-rule: nonzero; opacity: 1;" transform=" translate(-20.09, -21.5)" d="M 19.97 20.691 C 19.455 21.647 19.823 22.308999999999997 19.823 22.308999999999997 L 20.485 21.352999999999998 L 20.485 21.206 L 19.97 20.691 z" stroke-linecap="round" />
</g>
<g transform="matrix(1 0 0 1 -9.36 -6.32)" >
<polygon style="stroke: none; stroke-width: 1; stroke-dasharray: none; stroke-linecap: butt; stroke-dashoffset: 0; stroke-linejoin: miter; stroke-miterlimit: 4; fill: rgb(30,136,229); fill-rule: nonzero; opacity: 1;" points="-0.04,0.22 0.04,0.22 0.04,-0.22 " />
</g>
<g transform="matrix(1 0 0 1 -9.21 -6.29)" >
<polygon style="stroke: none; stroke-width: 1; stroke-dasharray: none; stroke-linecap: butt; stroke-dashoffset: 0; stroke-linejoin: miter; stroke-miterlimit: 4; fill: rgb(30,136,229); fill-rule: nonzero; opacity: 1;" points="-0.04,0.26 0.04,0.26 0.04,-0.18 -0.04,-0.26 " />
</g>
<g transform="matrix(1 0 0 1 -2.01 -1.91)" >
<path style="stroke: none; stroke-width: 1; stroke-dasharray: none; stroke-linecap: butt; stroke-dashoffset: 0; stroke-linejoin: miter; stroke-miterlimit: 4; fill: rgb(30,136,229); fill-rule: nonzero; opacity: 1;" transform=" translate(-21.99, -22.09)" d="M 22.617 21.426 L 21.441 21.5 L 21.368 21.573 L 21.735999999999997 22.75 C 22.47 22.235 22.617 21.426 22.617 21.426 z" stroke-linecap="round" />
</g>
<g transform="matrix(1 0 0 1 -1.93 -3.68)" >
<path style="stroke: none; stroke-width: 1; stroke-dasharray: none; stroke-linecap: butt; stroke-dashoffset: 0; stroke-linejoin: miter; stroke-miterlimit: 4; fill: rgb(30,136,229); fill-rule: nonzero; opacity: 1;" transform=" translate(-22.07, -20.32)" d="M 22.029 19.735 L 21.441 20.764 L 21.515 20.837 L 22.691 20.911 C 22.691 20.103 22.029 19.735 22.029 19.735 z" stroke-linecap="round" />
</g>
<g transform="matrix(1 0 0 1 9.73 2.32)" >
<path style="stroke: none; stroke-width: 1; stroke-dasharray: none; stroke-linecap: butt; stroke-dashoffset: 0; stroke-linejoin: miter; stroke-miterlimit: 4; fill: rgb(21,101,192); fill-rule: nonzero; opacity: 1;" transform=" translate(-33.73, -26.32)" d="M 42.911 10.544 C 43.132 13.265 43.499 19.956000000000003 38.058 29.368000000000002 C 32.69 38.706 26.881999999999998 40.912000000000006 24.455 42.089 L 24.455 40.692 C 28.939999999999998 38.266 32.836999999999996 34.368 35.926 28.192 C 39.529 21.060000000000002 39.97 15.251 39.676 12.31 L 42.911 10.544 z" stroke-linecap="round" />
</g>
<g transform="matrix(1 0 0 1 4.98 -14.74)" >
<path style="stroke: none; stroke-width: 1; stroke-dasharray: none; stroke-linecap: butt; stroke-dashoffset: 0; stroke-linejoin: miter; stroke-miterlimit: 4; fill: rgb(66,165,245); fill-rule: nonzero; opacity: 1;" transform=" translate(-28.98, -9.26)" d="M 42.911 10.544 C 40.706 9 35.264 6.206 24.456 6.206 C 20.706 6.206 17.544 6.574000000000001 15.043999999999999 7.088 C 15.559 7.897 15.852999999999998 8.853 15.925999999999998 9.882 C 18.72 9.366999999999999 21.735 9.073 24.97 9.147 C 31.881999999999998 9.221 37.47 10.765 39.748999999999995 12.309000000000001 L 42.911 10.544" stroke-linecap="round" />
</g>
<g transform="matrix(1 0 0 1 -14.4 -13.68)" >
<circle style="stroke: none; stroke-width: 1; stroke-dasharray: none; stroke-linecap: butt; stroke-dashoffset: 0; stroke-linejoin: miter; stroke-miterlimit: 4; fill: rgb(144,164,174); fill-rule: nonzero; opacity: 1;" cx="0" cy="0" r="4.559" />
</g>
</g>
</g>
</svg>