<svg width='24' height='24' viewBox='0 0 24 24' xmlns='http://www.w3.org/2000/svg' xmlns:xlink='http://www.w3.org/1999/xlink'><rect width='24' height='24' stroke='none' fill='#000000' opacity='0'/>


<g transform="matrix(0.31 0 0 0.31 12 12)" >
<linearGradient id="SVGID_8qzJTLE318BP_8giLHywZa_1" gradientUnits="userSpaceOnUse" gradientTransform="matrix(1 0 0 1 0 0)" x1="32.144" y1="23" x2="32.144" y2="43.165">
<stop offset="0%" style="stop-color:rgb(26,109,255);stop-opacity: 1"/>
<stop offset="100%" style="stop-color:rgb(200,34,255);stop-opacity: 1"/>
</linearGradient>
<path style="stroke: none; stroke-width: 1; stroke-dasharray: none; stroke-linecap: butt; stroke-dashoffset: 0; stroke-linejoin: miter; stroke-miterlimit: 4; fill: url(#SVGID_8qzJTLE318BP_8giLHywZa_1); fill-rule: nonzero; opacity: 1;" transform=" translate(-32.14, -33.08)" d="M 13.963 25.872 L 16.919999999999998 25.872 L 16.919999999999998 26.441 L 13.962999999999997 26.441 L 13.962999999999997 26.473 L 11.962999999999997 26.473 L 11.962999999999997 23 L 12.696999999999997 23 L 13.962999999999997 23 L 16.903999999999996 23 L 16.903999999999996 23.569 L 13.962999999999997 23.569 L 13.962999999999997 25.872 z M 1.91 23 L 1 23 L 1 26.473 L 3 26.473 L 3 26.441 L 6.117 26.441 L 6.117 25.872 L 3 25.872 L 3 24.957 L 4.441 24.957 L 4.441 24.388 L 3 24.388 L 3 23.569000000000003 L 6.117 23.569000000000003 L 6.117 23 L 3 23 L 1.91 23 z M 22.088 23 L 22.357 23 L 22.357 26.473 L 20.357 26.473 L 20.357 26.105999999999998 L 19.34 26.105999999999998 L 19.34 26.456999999999997 L 17.34 26.456999999999997 L 17.34 23.951999999999998 L 18.197 23 L 18.787 23 L 19.34 23 L 20.356 23 L 22.088 23 z M 20.356 25.213 L 20.356 23.569000000000003 L 19.34 23.569000000000003 L 19.34 25.213 L 20.356 25.213 z M 27.066 23 L 27.909 23 L 27.909 25.117 L 25.909 25.117 L 25.909 25.101000000000003 L 24.829 25.101000000000003 L 24.829 26.473000000000003 L 22.829 26.473000000000003 L 22.829 23 L 23.765 23 L 24.829 23 L 25.909 23 L 27.066 23 z M 25.91 24.532 L 25.91 23.569 L 24.83 23.569 L 24.83 24.532 L 25.91 24.532 z M 48.738 25.229 L 49.615 26.474 L 47.497 26.474 L 46.484 25.209 L 46.484 26.474 L 44.484 26.474 L 44.484 23 L 45.42 23 L 46.484 23 L 47.564 23 L 48.721000000000004 23 L 49.56400000000001 23 L 49.56400000000001 25.229 L 48.738 25.229 z M 46.484 23.569 L 46.484 24.287 L 47.564 24.287 L 47.564 23.569 L 46.484 23.569 z M 62.78 23 L 61.164 23 L 60.74 23 L 59.367000000000004 24.843 L 57.995 23 L 57.544 23 L 55.955 23 L 55.504 23 L 55.504 26.473 L 57.544 26.473 L 57.544 25.517 L 58.147999999999996 26.473 L 58.153999999999996 26.473 L 60.580999999999996 26.473 L 60.586999999999996 26.473 L 61.163999999999994 25.56 L 61.163999999999994 26.473 L 63.20399999999999 26.473 L 63.20399999999999 23 L 62.78 23 z M 54.29 23 L 55.063 23 L 55.063 25.505 L 54.29 26.365 L 54.29 26.456999999999997 L 54.207 26.456999999999997 L 53.063 26.456999999999997 L 51.99 26.456999999999997 L 50.989000000000004 26.456999999999997 L 49.99 26.456999999999997 L 49.99 23.951999999999998 L 50.846 23 L 50.989 23 L 51.989999999999995 23 L 53.062999999999995 23 L 54.29 23 z M 53.063 25.888 L 53.063 23.569000000000003 L 51.99 23.569000000000003 L 51.99 25.888 L 53.063 25.888 z M 9.489 24.532 L 8.537 24.532 L 8.537 23.569 L 11.463000000000001 23.569 L 11.463000000000001 23 L 8.537 23 L 7.394 23 L 7.255 23 L 7.255 23.136 L 6.537 23.84 L 6.537 25.101 L 8.100999999999999 25.101 L 8.536999999999999 25.101 L 9.488999999999999 25.101 L 9.488999999999999 25.872 L 6.537 25.872 L 6.537 26.441 L 9.489 26.441 L 9.489 26.456999999999997 L 10.633000000000001 26.456999999999997 L 11.489 25.686999999999998 L 11.489 24.531999999999996 L 10.633000000000001 24.531999999999996 L 9.489 24.531999999999996 z M 29.245 23 L 28.335 23 L 28.335 26.473 L 30.335 26.473 L 30.335 26.441 L 33.452 26.441 L 33.452 25.872 L 30.334999999999997 25.872 L 30.334999999999997 24.957 L 31.776999999999997 24.957 L 31.776999999999997 24.388 L 30.334999999999997 24.388 L 30.334999999999997 23.569000000000003 L 33.452 23.569000000000003 L 33.452 23 L 30.334999999999997 23 L 29.245 23 z M 39.856 23 L 38.946000000000005 23 L 38.946000000000005 26.473 L 40.946000000000005 26.473 L 40.946000000000005 24.957 L 42.38700000000001 24.957 L 42.38700000000001 24.388 L 40.946000000000005 24.388 L 40.946000000000005 23.569000000000003 L 44.063 23.569000000000003 L 44.063 23 L 40.946000000000005 23 L 39.856 23 z M 23.191 42.128 L 23.198 42.017 L 23.182000000000002 42.017 L 23.191 42.128 z M 23.329 40.021 L 23.381 39.228 L 23.329 39.228 L 23.329 40.021 z M 29.72 41.311 L 29.820999999999998 41.298 L 29.634999999999998 40.853 L 29.72 41.311 z M 23.511 42.191 L 23.788 39.227000000000004 L 23.385 39.227000000000004 L 23.511 42.191 z M 24.117 41.809 L 24.226000000000003 39.227999999999994 L 23.873 39.227999999999994 L 24.117 41.809 z M 24.902 39.227 L 24.251 39.227 L 24.302 42.613 L 24.349 43.141 L 24.394000000000002 43.141 L 24.500000000000004 41.872 L 24.734000000000005 43.141 L 25.108000000000004 43.141 L 25.173000000000005 42.674 L 24.902000000000005 42.674 L 24.902000000000005 39.227 z M 25.275 41.938 L 25.298 41.776 L 25.316 43.14 L 25.500999999999998 43.14 L 25.627 42.382 L 25.627 39.227 L 25.275 39.227 L 25.275 41.938 z M 33.699 43.141 L 33.778999999999996 43.141 L 33.754999999999995 42.622 L 33.699 43.141 z M 34.076 43.141 L 34.281 43.141 L 34.171 42.016 L 34.076 43.141 z M 34.752 43.141 L 34.788000000000004 43.141 L 34.777 42.942 L 34.752 43.141 z M 30.053 43.117 L 30.099 42.788 L 29.991 42.782 L 30.053 43.117 z M 30.436 42.989 L 30.466 42.809 L 30.434 42.806999999999995 L 30.436 42.989 z M 30.881 43.141 L 31.026 43.141 L 31.203 42.894 L 31.207 42.855 L 30.878 42.834999999999994 L 30.881 43.141 z M 31.625 27.191 L 31.691 29.25 L 31.691 37.403999999999996 L 29.828 37.403999999999996 L 30.641 40.363 L 30.406999999999996 40.809 L 30.403999999999996 40.595 L 30.361999999999995 40.894 L 30.275999999999996 41.058 L 28.266 36.794 L 28.697 35.791999999999994 L 27.762999999999998 36.437999999999995 L 27.331999999999997 38.065999999999995 L 27.595 38.352999999999994 L 28.101 37.17699999999999 L 29.599999999999998 40.76599999999999 L 29.552999999999997 41.33099999999999 L 29.401999999999997 41.34999999999999 L 29.287999999999997 40.05299999999999 L 29.041999999999998 43.14099999999999 L 29.012999999999998 43.14099999999999 L 29.057 40.93899999999999 L 28.892 40.919999999999995 L 28.841 39.63799999999999 L 28.803 40.90999999999999 L 28.219 40.84299999999999 L 28.198 43.14099999999999 L 27.977 43.14099999999999 L 27.912 42.30599999999999 L 27.933 41.03499999999999 L 27.812 41.02699999999999 L 27.726000000000003 39.92599999999999 L 27.676000000000002 41.01799999999999 L 27.574 41.01099999999999 L 27.611 42.453999999999986 L 27.580000000000002 43.14199999999999 L 27.457 43.14199999999999 L 27.183 39.606999999999985 L 27.127 42.98699999999999 L 26.496 40.69099999999999 L 26.48 40.27699999999999 L 26.454 40.53799999999999 L 26.094 39.22799999999999 L 26.418000000000003 39.22799999999999 L 26.418000000000003 39.448999999999984 L 28.503000000000004 39.448999999999984 L 28.503000000000004 38.72799999999999 L 26.418000000000003 38.72799999999999 L 26.418000000000003 38.73699999999999 L 25.959000000000003 38.73699999999999 L 25.629000000000005 37.536999999999985 L 25.629000000000005 38.73699999999999 L 25.277000000000005 38.73699999999999 L 25.277000000000005 38.51099999999999 L 25.583000000000006 38.51099999999999 L 25.583000000000006 38.13299999999999 L 25.376000000000005 38.13299999999999 L 25.376000000000005 37.94399999999999 L 25.048000000000005 37.94399999999999 L 25.048000000000005 38.13299999999999 L 24.835000000000004 38.13299999999999 L 24.835000000000004 37.80899999999999 L 24.183000000000003 37.80899999999999 L 24.183000000000003 38.267999999999994 L 24.300000000000004 38.267999999999994 L 24.300000000000004 38.330999999999996 L 24.300000000000004 38.510999999999996 L 24.300000000000004 38.736999999999995 L 23.330000000000005 38.736999999999995 L 23.330000000000005 36.376 L 23.110000000000007 36.376 L 23.110000000000007 37.421 L 22.930000000000007 37.421 L 22.930000000000007 37.997 L 23.110000000000007 37.997 L 23.110000000000007 38.736 L 22.923000000000005 38.736 L 22.810000000000006 37.308 L 22.810000000000006 38.736 L 22.34 38.736 L 22.137999999999998 34.467 L 22.119999999999997 38.736 L 21.389999999999997 38.736 L 21.389999999999997 37.372 L 21.389999999999997 34.372 L 21.389999999999997 31.355 L 23.118999999999996 31.388 L 23.118999999999996 30.957 L 21.389999999999997 30.934 L 21.389999999999997 30.191000000000003 L 21.389999999999997 29.186000000000003 L 21.389999999999997 27.445000000000004 L 21.522999999999996 28.188000000000002 L 21.610999999999997 27.191000000000003 L 21.702999999999996 27.191000000000003 L 21.838999999999995 28.828000000000003 L 21.977999999999994 27.191000000000003 L 22.212999999999994 27.191000000000003 L 22.282999999999994 29.245 L 22.355999999999995 27.191000000000003 L 27.453999999999994 27.191000000000003 L 30.262999999999995 27.191000000000003 L 30.447999999999993 29.734 L 30.576999999999995 27.191000000000003 L 30.781999999999993 27.191000000000003 L 30.987999999999992 30.056000000000004 L 31.05099999999999 27.191000000000003 L 31.391999999999992 27.191000000000003 L 31.625 27.191000000000003 z M 27.455 30.191 L 25.628 30.191 L 25.628 34.372 L 27.455 34.372 L 27.455 30.191 z M 17.203 31.936 L 17.399 31.508 L 16.925 31.499 L 17.016000000000002 31.628 L 17.203 31.936 z M 19.84 42.798 L 20.159 40.755 L 20.255 42.638000000000005 L 20.541999999999998 39.989000000000004 L 20.669999999999998 42.797000000000004 L 20.674999999999997 42.734 L 20.674999999999997 39.227000000000004 L 19.667999999999996 39.227000000000004 L 19.84 42.798 z M 18.787 42.479 L 19.33 42.766 L 19.433 39.227 L 18.568 39.227 L 18.787 42.479 z M 15.213 38.147 L 15.376 38.472 L 15.309 36.160000000000004 L 15.213 38.147 z M 15.929 42.241 L 15.867 42.016 L 16.035 39.861999999999995 L 15.652000000000001 39.023999999999994 L 15.376000000000001 38.471999999999994 L 15.500000000000002 42.76599999999999 L 15.978000000000002 42.51299999999999 L 15.929 42.241 z M -0.003 30.191 L 2.689 30.191 L 2.689 43.14 L 2.697 43.14 L 2.755 41.201 L 2.83 38.712 L 2.99 42.733000000000004 L 3.277 39.127 L 3.468 41.297000000000004 L 3.596 39.765 L 4.043 42.191 L 4.394 39.67 L 4.426 42.064 L 4.841 39.575 L 4.873 42.415000000000006 L 5.192 41.968 L 5.575 38.17 L 5.735 42.415 L 6.214 41.362 L 6.277 37.5 L 6.628 42.032 L 6.819 37.818999999999996 L 6.925 39.17699999999999 L 6.925 30.190999999999992 L 10 30.190999999999992 L 10 27.190999999999992 L -0.003 27.190999999999992 L -0.003 30.191 z M 14.862 39.024 L 15.006 39.263 L 14.91 39.885 L 14.572000000000001 40.329 L 14.479000000000001 40.507 L 14.366000000000001 40.714 L 14.575000000000001 42.637 L 14.671000000000001 40.754 L 14.990000000000002 42.797 L 15.214000000000002 38.146 L 15.078000000000003 37.874 L 14.862 39.024 z M 14.108 41.19 L 14.045 41.428 L 14.16 42.797999999999995 L 14.245000000000001 40.94 L 14.108 41.19 z M 35.028 43.141 L 35.131 43.141 L 35.063 42.559 L 35.028 43.141 z M 20.278 28.373 L 20.270999999999997 27.191000000000003 L 19.810999999999996 27.191000000000003 L 19.536999999999995 29.773000000000003 L 19.453999999999997 27.191000000000003 L 18.903 27.191000000000003 L 18.831999999999997 30.439000000000004 L 18.597999999999995 27.191000000000003 L 18.439999999999994 27.191000000000003 L 18.290999999999993 30.117000000000004 L 18.077999999999992 27.191000000000003 L 12.373999999999992 27.191000000000003 L 10.674999999999992 31.755000000000003 L 10.674999999999992 40.86 L 10.714999999999991 41.808 L 11 38.777 L 11.319 42.192 L 11.447000000000001 39.192 L 11.638000000000002 42.128 L 12.021 37.309 L 12.021 42.128 L 12.106000000000002 42.069 C 12.147000000000002 41.583000000000006 12.197000000000001 41.109 12.253000000000002 40.927 C 12.280000000000001 40.839 12.336000000000002 40.731 12.401000000000002 40.619 L 12.691 34.469 L 12.715 40.151 C 12.793 40.04600000000001 12.865 39.953 12.93 39.873000000000005 C 13.058 39.665000000000006 13.139 39.528000000000006 13.139 39.528000000000006 C 13.139 39.528000000000006 13.498 39.07300000000001 13.378 38.95400000000001 C 13.258000000000001 38.83400000000001 13.115 38.14000000000001 13.186 37.80500000000001 C 13.258 37.470000000000006 13.378 36.53600000000001 13.306 36.465 C 13.234 36.393 13.258 35.244 13.258 35.244 C 13.258 35.244 12.515999999999998 34.263 12.706999999999999 33.76 C 12.898 33.257 13.353 32.539 13.353 32.539 C 13.353 32.539 13.472999999999999 31.39 13.951 30.935000000000002 C 14.43 30.480000000000004 14.861 30.911 14.861 30.911 L 15.412 30.265 C 15.412 30.265 14.957 29.379 15.747000000000002 29.02 C 16.537000000000003 28.661 16.944000000000003 29.570999999999998 16.944000000000003 29.570999999999998 L 17.638 30 L 16.992 30.239 L 17.136 30.622 L 16.907 30.828 L 17.136 30.884999999999998 L 17.232 30.717 L 17.549 30.721999999999998 L 17.567 30.525999999999996 L 17.328 30.525999999999996 L 17.375999999999998 30.166999999999994 L 18.572999999999997 30.142999999999994 L 18.620999999999995 30.736999999999995 L 20.559999999999995 30.764999999999993 L 20.583999999999996 31.027999999999995 L 20.676999999999996 31.048999999999996 L 20.676999999999996 27.190999999999995 L 20.482999999999997 27.190999999999995 L 20.278 28.373 z M 20.511 31.628 L 19.378 31.628 L 18.884 32.705 L 18.022000000000002 33.949999999999996 L 16.969 33.446999999999996 L 16.825000000000003 33.87799999999999 L 17.256000000000004 33.99799999999999 L 16.897000000000006 35.31499999999999 L 16.370000000000005 35.48299999999999 L 16.418000000000003 36.22499999999999 L 16.825000000000003 36.942999999999984 L 17.040000000000003 37.73299999999998 L 17.447000000000003 38.713999999999984 L 17.686000000000003 38.68999999999998 L 17.638000000000005 40.05399999999998 L 17.470000000000006 40.22199999999998 L 17.655000000000005 43.16599999999998 L 17.763000000000005 43.16599999999998 L 17.796000000000006 41.13899999999998 L 17.953000000000007 43.16599999999998 L 18.095000000000006 43.16599999999998 L 18.115000000000006 39.22399999999998 L 18.466000000000005 42.606999999999985 L 18.491000000000003 39.22799999999999 L 18.416000000000004 39.22799999999999 L 18.416000000000004 38.97699999999999 L 18.187000000000005 38.97699999999999 L 18.187000000000005 38.73799999999999 L 18.494000000000003 38.73799999999999 L 18.498000000000005 38.23499999999999 L 18.532000000000004 38.73799999999999 L 19.445000000000004 38.73799999999999 L 19.520000000000003 36.160999999999994 L 19.644000000000002 38.73799999999999 L 20.674000000000003 38.73799999999999 L 20.674000000000003 31.342999999999993 L 20.605000000000004 31.34199999999999 L 20.511 31.628 z M 22.489 41.904 L 22.808 42.127 L 22.808 39.227000000000004 L 22.362 39.227000000000004 L 22.489 41.904 z M 21.391 41.711 L 21.563999999999997 40.308 L 21.691999999999997 42.542 L 21.851999999999997 39.925000000000004 L 22.106999999999996 42.127 L 22.118999999999996 39.227000000000004 L 21.390999999999995 39.227000000000004 L 21.390999999999995 41.711 z M 23.109 41.09 L 23.109 39.227000000000004 L 22.961000000000002 39.227000000000004 L 23.109 41.09 z M 17.83 32.968 L 18.284999999999997 32.681000000000004 L 18.284999999999997 31.963000000000005 L 18.264999999999997 31.660000000000004 L 17.636999999999997 32.650000000000006 L 17.83 32.968 z M 18.093 30.527 L 17.782 30.503 L 17.75 30.726 L 18.245 30.733 L 18.237000000000002 30.718 L 18.093 30.527 z M 42.149 41.353 L 41.969 43.141 L 42.392 43.141 L 42.358000000000004 42.229 L 42.149 41.353 z M 52.169 41.935 L 52.227999999999994 41.773 L 52.18599999999999 40.788000000000004 L 52.169 41.935 z M 51.55 43.165 L 51.723 43.165 L 51.763999999999996 43.051 L 51.754999999999995 41.186 L 51.55 43.165 z M 54.215 29.382 L 54.215 32.154 L 54.317 32.154 L 54.344 32.886 L 54.44 33.274 L 54.458999999999996 33.108000000000004 L 54.43599999999999 27.478000000000005 L 54.215 29.382 z M 53.032 27.191 L 52.982 27.191 L 52.872 29.616999999999997 L 52.609 27.190999999999995 L 52.573 27.190999999999995 L 52.489 28.850999999999996 L 52.23 27.190999999999995 L 52.151999999999994 27.190999999999995 L 51.85099999999999 33.446 L 51.669999999999995 27.191 L 51.11299999999999 27.191 L 50.82999999999999 31.372 L 50.79899999999999 27.191 L 50.77799999999999 27.191 L 50.44699999999999 30.383 L 50.43099999999999 27.191 L 44.98999999999999 27.191 L 43.29099999999999 31.755 L 43.29099999999999 38.042 L 45.02199999999999 38.042 L 45.02199999999999 43.164 L 45.72999999999999 43.164 L 45.66799999999999 41.685 L 45.66799999999999 34.814 L 45.946999999999996 38.328 L 45.946999999999996 34.752 L 46.31399999999999 34.752 L 46.61699999999999 41.168000000000006 L 46.64399999999999 34.75200000000001 L 46.79299999999999 34.75200000000001 L 46.90399999999999 35.71000000000001 L 46.96199999999999 34.75200000000001 L 47.15799999999999 34.75200000000001 L 47.19099999999999 35.32800000000001 L 47.261999999999986 34.75200000000001 L 47.286999999999985 34.75200000000001 L 47.286999999999985 30.213000000000008 L 49.29499999999999 30.213000000000008 L 49.29499999999999 37.36500000000001 L 49.37099999999999 34.75200000000001 L 49.73699999999999 34.75200000000001 L 49.73699999999999 42.869000000000014 L 49.71299999999999 42.716000000000015 L 49.68999999999998 43.16300000000002 L 50.66999999999998 43.16300000000002 L 50.66999999999998 38.16000000000002 L 51.93899999999998 38.16000000000002 L 51.93899999999998 35.164000000000016 L 51.994999999999976 35.719000000000015 L 52.074999999999974 32.152000000000015 L 52.15499999999997 32.152000000000015 L 52.54499999999997 36.02600000000002 L 52.519999999999975 32.164000000000016 L 52.52499999999998 32.152000000000015 L 53.037999999999975 32.152000000000015 L 53.23099999999997 35.34000000000002 L 53.29199999999997 34.554000000000016 L 53.29199999999997 30.167000000000016 L 53.28699999999997 30.221000000000014 L 53.032 27.191 z M 48.737 43.165 L 49.068000000000005 43.165 L 48.915000000000006 41.346 L 48.737 43.165 z M 49.275 43.165 L 49.461999999999996 43.165 L 49.33 41.952 L 49.275 43.165 z M 51.172 43.165 L 51.394 43.165 L 51.372 40.197 L 51.172 43.165 z M 59.128 43.117 L 58.936 40.946999999999996 L 58.761 43.141 L 59.542 43.141 L 59.255 41.585 L 59.128 43.117 z M 36.021 43.141 L 36.053 43.141 L 36.275 43.141 L 36.021 39.942 L 36.021 43.141 z M 59.823 43.141 L 60.075 43.141 L 60.053000000000004 41.489 L 59.823 43.141 z M 60.053 27.223 L 60.053 32.369 L 59.253 35.253 L 58.452 32.369 L 58.452 27.223 L 56.629 27.223 L 56.574999999999996 30.829 L 56.446999999999996 27.797 L 56.16 30.83 L 55.840999999999994 27.415 L 55.712999999999994 30.415 L 55.52199999999999 27.479 L 55.13899999999999 32.298 L 55.13899999999999 27.479000000000003 L 54.819999999999986 27.702 L 54.609999999999985 32.154 L 54.85199999999998 32.154 L 55.173999999999985 33.701 L 55.265999999999984 32.167 L 55.506999999999984 34.332 L 55.62999999999998 32.154 L 55.64899999999998 32.154 L 55.64899999999998 38.135000000000005 L 56.00799999999998 39.57900000000001 L 56.00799999999998 38.162000000000006 L 56.06999999999998 38.162000000000006 L 56.23199999999998 40.480000000000004 L 56.25499999999998 40.574000000000005 L 56.34899999999998 38.162000000000006 L 56.44099999999998 38.162000000000006 L 56.69499999999998 41.693000000000005 L 56.70499999999998 38.162000000000006 L 57.327999999999975 38.162000000000006 L 57.75999999999998 42.75900000000001 L 57.73399999999997 43.141000000000005 L 57.95099999999997 43.141000000000005 L 57.92999999999997 40.245000000000005 L 57.81799999999997 41.900000000000006 L 57.75599999999997 38.163000000000004 L 57.98499999999997 38.163000000000004 L 58.187999999999974 39.07000000000001 L 58.174999999999976 38.16300000000001 L 58.33199999999997 38.16300000000001 L 58.61899999999997 39.81000000000001 L 58.586999999999975 38.16300000000001 L 58.738999999999976 38.16300000000001 L 59.071999999999974 40.38800000000001 L 59.14599999999997 38.16300000000001 L 59.37799999999997 38.16300000000001 L 59.61699999999997 39.42600000000001 L 59.60699999999997 38.16300000000001 L 59.72299999999997 38.16300000000001 L 59.92799999999997 39.78900000000001 L 60.04099999999997 37.57500000000001 L 60.36099999999997 42.21700000000001 L 60.206999999999965 43.14100000000001 L 60.53199999999997 43.14100000000001 L 60.43799999999997 37.77300000000001 L 60.74199999999997 37.52900000000001 L 61.03099999999997 41.99000000000001 L 60.91499999999997 43.14100000000001 L 61.35099999999997 43.14100000000001 L 61.23299999999997 39.98900000000001 L 61.06399999999997 41.66900000000001 L 61.12499999999997 37.50400000000001 L 61.50599999999997 40.42200000000001 L 61.44 37.42 L 61.918 40.422000000000004 L 61.891999999999996 42.015 L 62.084999999999994 41.238 L 61.998999999999995 40.134 L 62.06999999999999 37.763 L 62.334999999999994 40.233 L 62.361 40.126999999999995 L 62.22 37.275999999999996 L 62.232 37.275999999999996 L 62.232 30.662999999999997 L 62.399 29.591999999999995 L 62.42 29.591999999999995 L 62.734 36.126999999999995 L 62.923 29.591999999999995 L 63.061 29.591999999999995 L 63.467999999999996 29.806999999999995 L 63.754999999999995 34.05199999999999 L 63.78699999999999 29.679999999999993 L 64.13199999999999 33.00299999999999 L 64.139 32.97599999999999 L 64.15599999999999 29.590999999999994 L 64.28999999999999 29.590999999999994 L 64.28999999999999 27.220999999999993 L 60.053 27.220999999999993 z M 62.478 39.658 L 62.480000000000004 39.651 L 62.479000000000006 39.639 L 62.478 39.658 z M 58.116 43.141 L 58.323 43.141 L 58.313 41.233999999999995 L 58.116 43.141 z M 48.257 43.165 L 48.418 43.165 L 48.308 42.271 L 48.257 43.165 z M 58.415 43.021 L 58.411 43.141 L 58.593 43.141 L 58.489000000000004 40.532 L 58.415 43.021 z M 56.707 42.389 L 56.894 43.141000000000005 L 57.053999999999995 43.141000000000005 L 56.91 38.17 L 56.707 42.389 z M 40.879 43.141 L 41.116 43.141 L 41.095 41.585 L 40.879 43.141 z M 40.176 43.141 L 40.567 43.141 L 40.298 41.681 L 40.176 43.141 z M 39.457 43.117 L 39.456 43.141 L 39.631 43.141 L 39.531 40.628 L 39.457 43.117 z M 39.812 43.141 L 40.163999999999994 43.141 L 39.97899999999999 41.043 L 39.812 43.141 z M 36.51 43.141 L 36.652 43.141 L 36.596000000000004 41.824999999999996 L 36.51 43.141 z M 37.385 43.141 L 37.483999999999995 43.141 L 37.45799999999999 41.41 L 37.385 43.141 z M 36.881 43.141 L 37.207 43.141 L 37.043 41.41 L 36.881 43.141 z M 46.404 43.165 L 46.621 43.165 L 46.49 41.153999999999996 L 46.404 43.165 z M 47.064 43.165 L 47.064 39.271 L 46.755 43.165 L 47.064 43.165 z M 41.267 43.141 L 41.561 43.141 L 41.542 41.489 L 41.267 43.141 z M 47.873 43.165 L 48.099 43.165 L 48.020999999999994 41.888 L 47.873 43.165 z M 47.559 40.149 L 47.416999999999994 43.165 L 47.76299999999999 43.165 L 47.74999999999999 40.149 L 47.559 40.149 z M 45.813 43.165 L 46.269000000000005 43.165 L 46.04200000000001 40.739 L 45.813 43.165 z M 36.67 30.159 L 36.67 27.223 L 34.501000000000005 27.223 L 34.443000000000005 28.862 L 34.38700000000001 27.223 L 34.10300000000001 27.223 L 33.99900000000001 28.445 L 33.89800000000001 27.223 L 33.735000000000014 27.223 L 33.683000000000014 27.805 L 33.579000000000015 27.223 L 32.98200000000001 27.223 L 32.88500000000001 27.896 L 32.88000000000001 27.223 L 32.57000000000001 27.223 L 32.43800000000001 27.99 L 32.43400000000001 27.302999999999997 L 32.43400000000001 39.661 L 32.70900000000001 39.661 L 32.62000000000001 42.722 L 32.63800000000001 42.957 L 32.78200000000001 39.792 L 32.77600000000001 39.660000000000004 L 32.78800000000001 39.660000000000004 L 32.83000000000001 38.743 L 32.902000000000015 39.660000000000004 L 33.83100000000002 39.660000000000004 L 33.88300000000002 36.706 L 34.350000000000016 36.706 L 34.424000000000014 39.660000000000004 L 35.34000000000001 39.660000000000004 L 35.32600000000001 43.14 L 35.63600000000001 43.14 L 35.44700000000001 39.129 L 35.44700000000001 38.536 L 36.36700000000001 38.536 L 36.44000000000001 34.792 L 37.05100000000001 34.792 L 37.156000000000006 38.536 L 38.79800000000001 38.536 L 38.79800000000001 40.379000000000005 L 39.732000000000006 40.379000000000005 L 39.732000000000006 38.79900000000001 L 40.68900000000001 38.79900000000001 L 40.68900000000001 38.04200000000001 L 41.36000000000001 38.04200000000001 L 40.059000000000005 32.57800000000001 L 42.415000000000006 27.19100000000001 L 37.968 27.19100000000001 L 36.67 30.159 z M 43.365 43.165 L 43.79 43.165 L 43.521 39.734 L 43.365 43.165 z" stroke-linecap="round" />
</g>
</svg>