<svg id='The_Legend_of_Zelda_Skyward_Sword_24' width='24' height='24' viewBox='0 0 24 24' xmlns='http://www.w3.org/2000/svg' xmlns:xlink='http://www.w3.org/1999/xlink'><rect width='24' height='24' stroke='none' fill='#000000' opacity='0'/>


<g transform="matrix(0.2 0 0 0.2 12 12)" >
<g style="" >
<g transform="matrix(1 0 0 1 0 -23.97)" >
<path style="stroke: none; stroke-width: 1; stroke-dasharray: none; stroke-linecap: butt; stroke-dashoffset: 0; stroke-linejoin: miter; stroke-miterlimit: 4; fill: rgb(237,220,103); fill-rule: nonzero; opacity: 1;" transform=" translate(-50, -26.03)" d="M 45.445 25.28 L 50 17.39 L 54.555 25.28 z M 40.024 34.67 L 44.579 26.78 L 49.134 34.67 z M 50.866 34.67 L 55.421 26.78 L 59.976 34.67 z" stroke-linecap="round" />
</g>
<g transform="matrix(1 0 0 1 5.06 -19.52)" >
<path style="stroke: none; stroke-width: 1; stroke-dasharray: none; stroke-linecap: butt; stroke-dashoffset: 0; stroke-linejoin: miter; stroke-miterlimit: 4; fill: rgb(31,33,43); fill-rule: nonzero; opacity: 1;" transform=" translate(-55.06, -30.48)" d="M 55.421 27.78 L 57.266 30.975 L 59.111 34.17 L 55.422 34.17 L 51.733 34.17 L 53.577999999999996 30.975 L 55.421 27.78 M 55.421 25.78 L 52.71 30.475 L 50 35.17 L 55.421 35.17 L 59.11 35.17 C 59.88 35.17 60.361 34.337 59.976 33.67 L 58.131 30.475 L 55.421 25.78 L 55.421 25.78 z" stroke-linecap="round" />
</g>
<g transform="matrix(1 0 0 1 0 -6.1)" >
<path style="stroke: none; stroke-width: 1; stroke-dasharray: none; stroke-linecap: butt; stroke-dashoffset: 0; stroke-linejoin: miter; stroke-miterlimit: 4; fill: rgb(237,220,103); fill-rule: nonzero; opacity: 1;" transform=" translate(-50, -43.9)" d="M 50 49.981 C 49.403 48.28 49.086 48.28 48.821 48.28 C 48.704 48.28 48.454 48.28 47.992 48.753 C 47.775999999999996 47.439 47.4 47.332 47.217999999999996 47.279 L 47.150999999999996 47.260000000000005 L 47.037 47.254000000000005 C 46.91 47.254000000000005 46.598 47.254000000000005 45.963 47.931000000000004 C 45.918 47.371 45.802 46.82600000000001 45.546 46.542 C 45.397 46.377 45.207 46.286 44.997 46.28 C 44.997 46.28 44.997 46.28 44.997 46.28 C 44.475 46.28 43.811 46.89 43.19 47.644 C 43.342 45.028999999999996 44.501999999999995 44.186 46.022 43.080999999999996 C 46.372 42.82599999999999 46.733 42.562999999999995 47.097 42.267999999999994 C 48.543 41.096 49.485 39.157999999999994 50.001000000000005 37.82299999999999 C 50.517 39.157999999999994 51.459 41.096 52.905 42.267999999999994 C 53.268 42.562999999999995 53.63 42.82599999999999 53.980000000000004 43.080999999999996 C 55.501000000000005 44.18599999999999 56.659000000000006 45.028999999999996 56.812000000000005 47.642999999999994 C 56.193000000000005 46.89099999999999 55.535000000000004 46.28099999999999 55.028000000000006 46.28099999999999 C 54.79500000000001 46.28699999999999 54.605000000000004 46.37799999999999 54.456 46.54299999999999 C 54.2 46.82599999999999 54.084 47.37199999999999 54.039 47.931999999999995 C 53.405 47.254999999999995 53.092 47.254999999999995 52.965 47.254999999999995 L 52.895 47.254999999999995 L 52.783 47.279999999999994 C 52.601 47.331999999999994 52.225 47.43999999999999 52.009 48.75399999999999 C 51.547 48.28099999999999 51.297 48.28099999999999 51.18 48.28099999999999 C 50.914 48.28 50.597 48.28 50 49.981 z" stroke-linecap="round" />
</g>
<g transform="matrix(1 0 0 1 0 -6.08)" >
<path style="stroke: none; stroke-width: 1; stroke-dasharray: none; stroke-linecap: butt; stroke-dashoffset: 0; stroke-linejoin: miter; stroke-miterlimit: 4; fill: rgb(31,33,43); fill-rule: nonzero; opacity: 1;" transform=" translate(-50, -43.92)" d="M 50 50.481 C 49.788 50.481 49.599 50.347 49.528 50.147 C 49.107 48.948 48.884 48.79 48.861 48.775 C 48.692 48.78 48.492999999999995 48.955 48.349999999999994 49.102 C 48.217999999999996 49.236 48.019999999999996 49.285 47.84199999999999 49.229 C 47.66199999999999 49.172 47.52899999999999 49.019 47.49899999999999 48.833 C 47.45999999999999 48.598 47.31599999999999 47.827 47.08099999999999 47.759 L 47.011999999999986 47.753 C 46.835999999999984 47.753 46.47399999999999 48.116 46.32799999999999 48.272 C 46.191999999999986 48.416 45.98399999999999 48.466 45.79799999999999 48.402 C 45.61099999999999 48.337 45.48099999999999 48.168 45.46499999999999 47.97 C 45.40099999999999 47.181 45.22699999999999 46.933 45.17499999999999 46.876 C 45.09799999999999 46.791 45.02799999999999 46.778999999999996 44.98199999999999 46.778 C 44.92199999999999 46.778 44.50299999999999 46.835 43.57599999999999 47.96 C 43.437999999999995 48.127 43.20799999999999 48.187 43.007999999999996 48.107 C 42.806999999999995 48.028 42.678999999999995 47.829 42.69199999999999 47.612 C 42.85799999999999 44.761 44.18899999999999 43.794000000000004 45.72899999999999 42.674 C 46.08099999999999 42.418 46.43099999999999 42.163 46.782999999999994 41.878 C 48.12499999999999 40.79 49.020999999999994 38.973 49.535 37.641 C 49.683 37.254999999999995 50.318999999999996 37.254999999999995 50.467999999999996 37.641 C 50.983 38.973 51.87799999999999 40.789 53.22 41.878 C 53.571999999999996 42.164 53.922 42.419 54.262 42.666 C 55.814 43.794 57.144 44.762 57.311 47.611 C 57.324 47.827 57.196 48.026999999999994 56.995 48.105999999999995 C 56.791 48.184999999999995 56.564 48.12499999999999 56.425999999999995 47.958999999999996 C 55.483 46.812 55.071999999999996 46.778999999999996 55.028999999999996 46.778999999999996 C 54.949999999999996 46.781 54.888 46.809999999999995 54.827 46.876999999999995 C 54.775 46.934 54.601 47.181999999999995 54.537 47.971 C 54.521 48.168 54.39 48.336999999999996 54.204 48.403 C 54.016 48.467 53.809 48.417 53.674 48.272999999999996 C 53.528 48.117 53.166 47.754 52.964999999999996 47.754 L 52.891999999999996 47.766999999999996 C 52.684999999999995 47.827 52.541 48.599 52.501999999999995 48.833999999999996 C 52.471999999999994 49.019999999999996 52.339 49.172999999999995 52.15899999999999 49.23 C 51.978999999999985 49.287 51.782999999999994 49.236999999999995 51.65099999999999 49.102 C 51.50699999999999 48.955 51.30899999999999 48.779999999999994 51.17999999999999 48.779999999999994 C 51.11699999999999 48.788999999999994 50.89399999999999 48.946999999999996 50.47299999999999 50.14699999999999 C 50.401 50.347 50.212 50.481 50 50.481 z M 48.821 47.78 C 49.269 47.78 49.614999999999995 47.944 50 48.68 C 50.385 47.944 50.731 47.78 51.179 47.78 C 51.319 47.78 51.489000000000004 47.799 51.695 47.896 C 51.948 47.112 52.308 46.895 52.643 46.799 L 52.785000000000004 46.766 C 53.044000000000004 46.71 53.322 46.757999999999996 53.690000000000005 46.982 C 53.78300000000001 46.650999999999996 53.914 46.394999999999996 54.084 46.207 C 54.328 45.938 54.649 45.79 55.013000000000005 45.78 L 55.013000000000005 45.78 C 55.339000000000006 45.78 55.68300000000001 45.913000000000004 56.059000000000005 46.19 C 55.655 44.919 54.81400000000001 44.306999999999995 53.684000000000005 43.486 C 53.318000000000005 43.218999999999994 52.95400000000001 42.95399999999999 52.58800000000001 42.657 C 51.43100000000001 41.718999999999994 50.58400000000001 40.339999999999996 49.99900000000001 39.096999999999994 C 49.415000000000006 40.340999999999994 48.56700000000001 41.71999999999999 47.41000000000001 42.657999999999994 C 47.04400000000001 42.95499999999999 46.680000000000014 43.21999999999999 46.32700000000001 43.477 C 45.18500000000001 44.306999999999995 44.34200000000001 44.919999999999995 43.93700000000001 46.196 C 44.31800000000001 45.915 44.66600000000001 45.78 44.99500000000001 45.78 C 45.35400000000001 45.791000000000004 45.67600000000001 45.942 45.91500000000001 46.207 C 46.08400000000001 46.394 46.21500000000001 46.65 46.30900000000001 46.979 C 46.61800000000001 46.789 46.85100000000001 46.754 47.03600000000001 46.754 L 47.17600000000001 46.76 C 47.214000000000006 46.762 47.25100000000001 46.768 47.28600000000001 46.778999999999996 C 47.67600000000001 46.88999999999999 48.04800000000001 47.111 48.30400000000001 47.895999999999994 C 48.511 47.799 48.681 47.78 48.821 47.78 z" stroke-linecap="round" />
</g>
<g transform="matrix(1 0 0 1 0 17.58)" >
<path style="stroke: none; stroke-width: 1; stroke-dasharray: none; stroke-linecap: butt; stroke-dashoffset: 0; stroke-linejoin: miter; stroke-miterlimit: 4; fill: rgb(237,220,103); fill-rule: nonzero; opacity: 1;" transform=" translate(-50, -67.58)" d="M 50 81.335 C 49.855 80.746 49.688 80.10499999999999 49.511 79.50699999999999 C 49.116 78.18199999999999 48.308 76.934 47.925000000000004 76.389 C 48.291000000000004 75.773 49.05200000000001 74.29899999999999 49.126000000000005 72.606 C 49.19800000000001 70.943 48.43600000000001 69.46799999999999 48.02100000000001 68.79599999999999 C 48.54500000000001 68.24999999999999 49.40100000000001 67.008 49.07500000000001 64.946 C 48.76500000000001 62.98 46.10900000000001 61.721 44.33500000000001 61.092 C 44.659000000000006 60.924 44.98300000000001 60.704 45.254000000000005 60.417 C 45.75300000000001 59.891 45.982000000000006 59.353 46.223000000000006 58.783 C 46.422000000000004 58.314 46.62800000000001 57.829 47.017 57.245000000000005 C 47.551 56.44500000000001 48.108000000000004 55.922000000000004 48.646 55.417 C 48.972 55.111000000000004 49.28 54.822 49.550000000000004 54.498000000000005 C 49.731 54.281000000000006 49.879000000000005 54.048 49.999 53.819 C 50.120000000000005 54.048 50.268 54.281000000000006 50.449000000000005 54.498000000000005 C 50.71900000000001 54.822 51.02700000000001 55.111000000000004 51.35300000000001 55.417 C 51.891000000000005 55.922000000000004 52.44800000000001 56.445 52.98100000000001 57.245000000000005 C 53.37000000000001 57.828 53.57600000000001 58.313 53.775000000000006 58.783 C 54.017 59.352000000000004 54.245000000000005 59.89 54.74400000000001 60.417 C 55.01500000000001 60.704 55.339000000000006 60.924 55.663000000000004 61.092 C 53.889 61.721 51.233000000000004 62.979 50.923 64.946 C 50.597 67.008 51.453 68.25 51.977000000000004 68.79599999999999 C 51.562000000000005 69.46799999999999 50.800000000000004 70.943 50.873000000000005 72.606 C 50.946000000000005 74.29799999999999 51.708000000000006 75.773 52.074000000000005 76.389 C 51.691 76.93299999999999 50.883 78.181 50.48800000000001 79.50699999999999 C 50.312 80.105 50.145 80.746 50 81.335 z" stroke-linecap="round" />
</g>
<g transform="matrix(1 0 0 1 0 17.59)" >
<path style="stroke: none; stroke-width: 1; stroke-dasharray: none; stroke-linecap: butt; stroke-dashoffset: 0; stroke-linejoin: miter; stroke-miterlimit: 4; fill: rgb(31,33,43); fill-rule: nonzero; opacity: 1;" transform=" translate(-50, -67.59)" d="M 50 81.835 C 49.77 81.835 49.569 81.678 49.514 81.454 C 49.371 80.872 49.207 80.24 49.031000000000006 79.64999999999999 C 48.651 78.371 47.84400000000001 77.145 47.51500000000001 76.67699999999999 C 47.40200000000001 76.51599999999999 47.394000000000005 76.303 47.49400000000001 76.13399999999999 C 47.81100000000001 75.59999999999998 48.556000000000004 74.18499999999999 48.626000000000005 72.58499999999998 C 48.691 71.07799999999997 48.008 69.72899999999998 47.595000000000006 69.05999999999997 C 47.47500000000001 68.86599999999997 47.502 68.61599999999997 47.659000000000006 68.45099999999998 C 48.12800000000001 67.96199999999997 48.87100000000001 66.86699999999998 48.580000000000005 65.02499999999998 C 48.304 63.27799999999998 45.696000000000005 62.10699999999998 44.166000000000004 61.564999999999976 C 43.978 61.498999999999974 43.848000000000006 61.32699999999998 43.834 61.12799999999998 C 43.82 60.92899999999998 43.926 60.74099999999998 44.103 60.64999999999998 C 44.418 60.485999999999976 44.683 60.29299999999998 44.89 60.074999999999974 C 45.327 59.613999999999976 45.529 59.138999999999974 45.762 58.589999999999975 C 45.96 58.122999999999976 46.185 57.59399999999997 46.6 56.96999999999998 C 47.165 56.122999999999976 47.743 55.57999999999998 48.302 55.055999999999976 C 48.619 54.757999999999974 48.916 54.479999999999976 49.166 54.17999999999998 C 49.309 54.00799999999998 49.44 53.808999999999976 49.556999999999995 53.58799999999998 C 49.73 53.25999999999998 50.269 53.25999999999998 50.44199999999999 53.58799999999998 C 50.55799999999999 53.80799999999998 50.68999999999999 54.00699999999998 50.833999999999996 54.17999999999998 C 51.083999999999996 54.479999999999976 51.379999999999995 54.75899999999998 51.693999999999996 55.05399999999998 C 52.25599999999999 55.58199999999998 52.833 56.12399999999998 53.397999999999996 56.97099999999998 C 53.812999999999995 57.594999999999985 54.038 58.12399999999998 54.236 58.59099999999998 C 54.468999999999994 59.13999999999998 54.671 59.61499999999998 55.108 60.07599999999998 C 55.315 60.29399999999998 55.57899999999999 60.48799999999998 55.894999999999996 60.65099999999998 C 56.071999999999996 60.74199999999998 56.178 60.929999999999986 56.163999999999994 61.128999999999984 C 56.14999999999999 61.32799999999998 56.019999999999996 61.499999999999986 55.831999999999994 61.56599999999998 C 54.30199999999999 62.10799999999998 51.693999999999996 63.27899999999998 51.419 65.02599999999998 C 51.126999999999995 66.86799999999998 51.870999999999995 67.96399999999998 52.339 68.45199999999998 C 52.497 68.61699999999999 52.522999999999996 68.86699999999999 52.403 69.06099999999998 C 51.99 69.72999999999998 51.307 71.07899999999998 51.373 72.58599999999998 C 51.442 74.18599999999998 52.187 75.60099999999998 52.504 76.13499999999999 C 52.604 76.30399999999999 52.596 76.517 52.483 76.678 C 52.153999999999996 77.146 51.348 78.372 50.967 79.651 C 50.792 80.241 50.626999999999995 80.87299999999999 50.485 81.455 C 50.431 81.678 50.23 81.835 50 81.835 z M 48.514 76.365 C 48.971000000000004 77.048 49.633 78.16499999999999 49.99 79.365 C 49.993 79.37599999999999 49.997 79.387 50 79.399 C 50.003 79.388 50.007 79.377 50.01 79.365 C 50.367 78.166 51.028999999999996 77.048 51.486 76.365 C 51.043 75.55699999999999 50.443 74.19099999999999 50.375 72.628 C 50.307 71.073 50.899 69.689 51.366 68.854 C 50.792 68.137 50.12 66.835 50.432 64.868 C 50.724000000000004 63.019 52.697 61.763 54.598 60.968999999999994 C 54.522999999999996 60.901999999999994 54.452 60.83299999999999 54.384 60.76199999999999 C 53.822 60.169999999999995 53.566 59.56499999999999 53.317 58.97999999999999 C 53.127 58.53299999999999 52.931 58.06999999999999 52.567 57.52399999999999 C 52.066 56.77299999999999 51.531 56.27099999999999 51.014 55.78499999999999 C 50.673 55.46499999999999 50.355000000000004 55.16599999999999 50.066 54.81899999999999 C 50.044000000000004 54.792999999999985 50.022000000000006 54.76599999999999 50.001000000000005 54.737999999999985 C 49.980000000000004 54.764999999999986 49.958000000000006 54.79199999999999 49.93600000000001 54.81899999999999 C 49.64600000000001 55.16699999999999 49.32800000000001 55.46499999999999 48.99100000000001 55.78099999999999 C 48.470000000000006 56.26999999999999 47.93500000000001 56.77199999999999 47.434000000000005 57.52299999999999 C 47.071000000000005 58.06799999999999 46.874 58.53099999999999 46.684000000000005 58.97899999999999 C 46.435 59.56399999999999 46.179 60.16899999999999 45.617000000000004 60.76199999999999 C 45.550000000000004 60.83299999999999 45.478 60.901999999999994 45.403000000000006 60.968999999999994 C 47.303000000000004 61.76299999999999 49.27700000000001 63.019999999999996 49.569 64.868 C 49.881 66.835 49.209 68.137 48.635000000000005 68.854 C 49.101000000000006 69.689 49.694 71.073 49.626000000000005 72.628 C 49.558 74.191 48.957 75.558 48.514 76.365 z" stroke-linecap="round" />
</g>
<g transform="matrix(1 0 0 1 -28.17 0.75)" >
<path style="stroke: none; stroke-width: 1; stroke-dasharray: none; stroke-linecap: butt; stroke-dashoffset: 0; stroke-linejoin: miter; stroke-miterlimit: 4; fill: rgb(237,220,103); fill-rule: nonzero; opacity: 1;" transform=" translate(-21.83, -50.75)" d="M 38.284 52.23 C 35.705 51.333 34.415 48.193 34.471 44.884 C 34.526999999999994 41.576 36.26499999999999 39.165 36.26499999999999 39.165 C 36.26499999999999 39.165 32.827999999999996 40.285 31.062999999999995 43.738 C 26.196999999999996 42.921 12.510999999999996 40.214 1.1259999999999941 34.062 C 1.1259999999999941 34.062 1.666999999999994 41.708999999999996 7.779999999999994 44.099 C 14.731999999999994 46.818 25.798999999999992 47.742 30.050999999999995 48.007 C 30.049999999999994 48.071 30.040999999999993 48.126999999999995 30.040999999999993 48.192 C 30.040999999999993 48.4 30.063999999999993 48.595 30.074999999999992 48.797 C 26.85599999999999 49.263 16.852999999999994 50.427 8.683999999999994 48.345 L 7.186999999999994 47.964 L 7.542999999999994 49.467 C 8.067999999999994 51.677 10.268999999999995 55.856 14.844999999999994 55.856 C 19.256999999999994 55.856 28.45799999999999 53.824 31.248999999999995 53.184000000000005 C 31.345999999999997 53.37200000000001 31.439999999999994 53.563 31.544999999999995 53.742000000000004 C 29.536999999999995 55.12200000000001 24.008999999999993 58.48800000000001 17.483999999999995 58.754000000000005 L 15.782999999999994 58.82300000000001 L 16.754999999999995 60.22100000000001 C 16.855999999999995 60.366000000000014 19.029999999999994 63.424000000000014 22.819999999999997 63.424000000000014 C 23.248999999999995 63.424000000000014 23.699999999999996 63.38500000000001 24.169999999999998 63.298000000000016 C 28.287 62.53400000000001 32.666 58.59500000000001 34.326 56.97300000000001 C 34.509 57.125000000000014 34.693 57.27000000000001 34.877 57.40700000000001 C 33.352000000000004 59.64900000000001 30.101000000000003 64.41100000000002 29.101000000000003 65.72400000000002 L 28.236000000000004 66.85900000000002 L 29.623000000000005 67.19800000000002 C 29.800000000000004 67.24100000000003 30.625000000000004 67.42900000000002 31.631000000000004 67.42900000000002 C 32.79600000000001 67.42900000000002 34.201 67.17800000000001 35.12200000000001 66.16000000000001 C 36.17300000000001 64.998 37.89500000000001 61.32300000000001 38.806000000000004 59.28700000000001 C 38.818000000000005 59.289000000000016 38.833000000000006 59.29300000000001 38.845000000000006 59.295000000000016 C 40.92000000000001 59.603000000000016 42.34 58.180000000000014 42.49000000000001 56.884000000000015 C 42.657 55.427 42.552 53.715 38.284 52.23 z" stroke-linecap="round" />
</g>
<g transform="matrix(1 0 0 1 -28.17 0.75)" >
<path style="stroke: none; stroke-width: 1; stroke-dasharray: none; stroke-linecap: butt; stroke-dashoffset: 0; stroke-linejoin: miter; stroke-miterlimit: 4; fill: rgb(31,33,43); fill-rule: nonzero; opacity: 1;" transform=" translate(-21.83, -50.75)" d="M 31.63 68.429 C 30.529 68.429 29.631999999999998 68.23 29.384 68.169 L 27.999 67.831 C 27.671 67.751 27.406 67.51100000000001 27.293 67.193 C 27.181 66.875 27.236 66.52199999999999 27.439999999999998 66.254 L 28.304999999999996 65.119 C 28.840999999999998 64.415 30.062999999999995 62.663 31.292999999999996 60.875 C 29.265999999999995 62.374 26.782999999999994 63.831 24.351999999999997 64.282 C 23.836999999999996 64.377 23.321999999999996 64.425 22.818999999999996 64.425 C 18.595999999999997 64.425 16.194999999999997 61.166 15.934999999999995 60.794999999999995 L 14.961999999999994 59.394999999999996 C 14.753999999999994 59.095 14.724999999999994 58.705999999999996 14.887999999999995 58.379 C 15.050999999999995 58.052 15.377999999999995 57.839999999999996 15.742999999999995 57.824999999999996 L 17.443999999999996 57.75599999999999 C 21.258999999999997 57.599999999999994 24.726999999999997 56.336999999999996 27.298999999999996 55.065999999999995 C 23.338999999999995 55.88099999999999 17.951999999999998 56.85699999999999 14.843999999999996 56.85699999999999 C 9.641999999999996 56.85699999999999 7.155999999999996 52.17499999999999 6.5689999999999955 49.69899999999999 L 6.212999999999996 48.19599999999999 C 6.131999999999995 47.85499999999999 6.234999999999996 47.49699999999999 6.484999999999996 47.25199999999999 C 6.734999999999996 47.005999999999986 7.0929999999999955 46.90999999999999 7.432999999999996 46.99599999999999 L 8.929999999999996 47.37699999999999 C 13.711999999999996 48.59699999999999 19.197999999999997 48.66899999999999 23.471999999999994 48.43699999999999 C 18.391999999999996 47.86599999999999 12.036999999999994 46.83899999999999 7.414999999999996 45.03199999999999 C 0.7899999999999956 42.44199999999999 0.1519999999999957 34.47199999999999 0.12799999999999567 34.13499999999999 C 0.10199999999999568 33.770999999999994 0.2769999999999957 33.42199999999999 0.5839999999999956 33.22399999999999 C 0.8909999999999956 33.02799999999999 1.2809999999999957 33.01299999999999 1.6019999999999956 33.18399999999999 C 12.272999999999994 38.95099999999999 24.924999999999997 41.65099999999999 30.535999999999998 42.63499999999999 C 32.532 39.36399999999999 35.808 38.26399999999999 35.955 38.215999999999994 C 36.366 38.081999999999994 36.817 38.227 37.073 38.57699999999999 C 37.328 38.92699999999999 37.33 39.40099999999999 37.076 39.75099999999999 C 37.062 39.770999999999994 35.521 41.96999999999999 35.471000000000004 44.90299999999999 C 35.417 48.09799999999999 36.650000000000006 50.60399999999999 38.61300000000001 51.28699999999999 C 43.285000000000004 52.91199999999999 43.715 54.992999999999995 43.483000000000004 56.99999999999999 C 43.37500000000001 57.93899999999999 42.839000000000006 58.840999999999994 42.013000000000005 59.474999999999994 C 41.28000000000001 60.03699999999999 40.382000000000005 60.333999999999996 39.43000000000001 60.33899999999999 C 38.30200000000001 62.81799999999999 36.86000000000001 65.73199999999999 35.864000000000004 66.833 C 34.917 67.877 33.454 68.429 31.63 68.429 z M 29.958 66.25 C 30.217 66.307 30.863 66.43 31.63 66.43 C 32.497 66.43 33.677 66.26700000000001 34.379999999999995 65.49100000000001 C 35.068 64.73100000000001 36.38099999999999 62.26000000000001 37.892999999999994 58.88000000000002 C 38.07299999999999 58.47900000000001 38.49999999999999 58.243000000000016 38.92999999999999 58.29700000000002 C 38.965999999999994 58.301000000000016 39.019999999999996 58.31200000000002 39.05499999999999 58.32000000000002 C 39.86299999999999 58.435000000000024 40.45199999999999 58.151000000000025 40.794999999999995 57.88800000000002 C 41.181 57.59100000000002 41.449999999999996 57.16300000000002 41.495 56.77100000000002 C 41.611999999999995 55.758000000000024 41.757999999999996 54.499000000000024 37.955 53.17600000000002 L 37.955 53.17600000000002 C 35.162 52.20400000000002 33.402 48.944000000000024 33.471 44.86900000000002 C 33.492 43.66600000000002 33.712999999999994 42.575000000000024 34.001 41.651000000000025 C 33.263999999999996 42.27100000000002 32.510999999999996 43.105000000000025 31.952999999999996 44.19500000000002 C 31.753999999999994 44.58300000000002 31.325999999999997 44.79500000000002 30.896999999999995 44.72600000000002 C 25.878999999999994 43.88400000000002 13.454999999999995 41.386000000000024 2.4679999999999964 35.889000000000024 C 3.0359999999999965 38.133000000000024 4.497999999999996 41.74400000000003 8.143999999999997 43.17000000000002 C 14.931999999999997 45.82400000000003 25.769 46.74000000000002 30.113 47.011000000000024 C 30.646 47.044000000000025 31.059 47.49000000000002 31.051 48.02500000000003 C 31.051 48.04600000000003 31.044999999999998 48.15500000000003 31.043 48.17700000000003 C 31.041 48.30400000000003 31.05 48.410000000000025 31.058 48.51500000000003 L 31.073999999999998 48.74600000000003 C 31.101 49.263000000000034 30.730999999999998 49.71500000000003 30.218999999999998 49.78900000000003 C 27.249999999999996 50.21800000000003 16.940999999999995 51.45100000000003 8.543999999999997 49.34300000000003 C 9.047999999999996 51.311000000000035 10.964999999999996 54.85800000000003 14.846999999999998 54.85800000000003 C 19.159999999999997 54.85800000000003 28.321999999999996 52.832000000000036 31.026999999999997 52.211000000000034 C 31.473999999999997 52.10800000000003 31.929999999999996 52.32200000000003 32.138999999999996 52.72700000000003 L 32.20399999999999 52.85300000000003 C 32.269999999999996 52.98300000000003 32.33599999999999 53.11300000000003 32.40899999999999 53.23600000000003 C 32.67499999999999 53.689000000000036 32.54599999999999 54.27000000000003 32.11399999999999 54.56800000000003 C 29.99199999999999 56.02700000000004 24.353999999999992 59.43800000000003 17.65099999999999 59.750000000000036 C 18.03299999999999 60.250000000000036 19.86899999999999 62.427000000000035 22.82199999999999 62.427000000000035 C 23.20299999999999 62.427000000000035 23.59599999999999 62.390000000000036 23.99099999999999 62.317000000000036 C 27.82599999999999 61.60500000000003 32.008999999999986 57.84400000000004 33.62899999999999 56.26000000000003 C 33.99599999999999 55.90100000000003 34.57399999999999 55.87900000000003 34.965999999999994 56.205000000000034 C 35.13499999999999 56.345000000000034 35.30499999999999 56.479000000000035 35.474999999999994 56.60500000000003 C 35.90599999999999 56.924000000000035 36.007999999999996 57.52700000000003 35.705999999999996 57.97100000000003 C 33.994 60.485 31.006 64.856 29.958 66.25 z" stroke-linecap="round" />
</g>
<g transform="matrix(1 0 0 1 -12.15 21.93)" >
<path style="stroke: none; stroke-width: 1; stroke-dasharray: none; stroke-linecap: butt; stroke-dashoffset: 0; stroke-linejoin: miter; stroke-miterlimit: 4; fill: rgb(237,220,103); fill-rule: nonzero; opacity: 1;" transform=" translate(-37.85, -71.93)" d="M 44.92 71.53 C 44.853 71.488 43.623000000000005 71.465 42.105000000000004 71.453 L 44.952000000000005 67.75 L 44.968 67.725 C 45.142 67.451 45.243 67.12599999999999 45.243 66.77799999999999 C 45.243 65.80099999999999 44.451 65.00899999999999 43.474000000000004 65.00899999999999 C 42.726000000000006 65.00899999999999 42.086000000000006 65.47299999999998 41.828 66.12999999999998 L 41.817 66.15899999999998 L 38.64 71.44399999999997 C 34.936 71.44399999999997 31.377000000000002 71.47699999999998 31.26 71.49399999999997 C 31.05 71.52399999999997 30.330000000000002 71.73399999999997 30.360000000000003 72.31299999999997 C 30.390000000000004 72.89199999999997 35.565000000000005 78.85899999999998 35.565000000000005 78.85899999999998 L 35.20400000000001 74.83199999999998 L 40.25900000000001 74.92799999999998 L 40.48500000000001 76.91499999999998 C 40.48500000000001 76.91499999999998 45.07000000000001 72.84999999999998 45.28000000000001 72.51999999999998 C 45.49 72.19 45.16 71.68 44.92 71.53 z" stroke-linecap="round" />
</g>
<g transform="matrix(1 0 0 1 -12.15 21.93)" >
<path style="stroke: none; stroke-width: 1; stroke-dasharray: none; stroke-linecap: butt; stroke-dashoffset: 0; stroke-linejoin: miter; stroke-miterlimit: 4; fill: rgb(31,33,43); fill-rule: nonzero; opacity: 1;" transform=" translate(-37.85, -71.93)" d="M 35.565 79.858 C 35.281 79.858 35.003 79.73700000000001 34.809 79.513 C 29.409 73.286 29.379999999999995 72.73100000000001 29.360999999999997 72.364 C 29.307 71.313 30.203999999999997 70.63300000000001 31.118999999999996 70.503 C 31.384999999999998 70.464 35.785999999999994 70.446 38.074 70.443 L 40.922 65.704 C 41.376999999999995 64.65599999999999 42.361999999999995 64.00699999999999 43.474 64.00699999999999 C 45.001 64.00699999999999 46.242999999999995 65.249 46.242999999999995 66.776 C 46.242999999999995 67.304 46.093999999999994 67.817 45.812 68.25999999999999 C 45.796 68.285 45.763 68.33399999999999 45.745 68.35799999999999 L 44.114999999999995 70.478 C 45.166999999999994 70.505 45.248 70.556 45.44799999999999 70.67899999999999 C 45.44799999999999 70.67899999999999 45.44899999999999 70.67999999999999 45.449999999999996 70.67999999999999 C 45.851 70.92999999999999 46.196 71.425 46.306 71.91099999999999 C 46.397999999999996 72.31899999999999 46.333999999999996 72.72499999999998 46.123999999999995 73.05499999999999 C 46.038999999999994 73.189 45.839 73.50399999999999 41.148999999999994 77.66099999999999 C 40.86899999999999 77.90799999999999 40.474999999999994 77.97899999999998 40.12799999999999 77.847 C 39.778999999999996 77.714 39.53399999999999 77.39699999999999 39.49199999999999 77.026 L 39.36499999999999 75.90899999999999 L 36.29999999999999 75.85099999999998 L 36.56199999999999 78.76699999999998 C 36.60099999999999 79.19899999999998 36.35599999999999 79.60699999999999 35.956999999999994 79.77699999999999 C 35.83 79.832 35.697 79.858 35.565 79.858 z M 31.613 72.483 C 32.114 73.179 33.13 74.436 34.288 75.818 L 34.206999999999994 74.92 C 34.181999999999995 74.637 34.27799999999999 74.357 34.471999999999994 74.149 C 34.66499999999999 73.941 34.94799999999999 73.838 35.221999999999994 73.831 L 40.27799999999999 73.927 C 40.77899999999999 73.93700000000001 41.19599999999999 74.316 41.25299999999999 74.81400000000001 L 41.260999999999996 74.88300000000001 C 42.321999999999996 73.93200000000002 43.306999999999995 73.03900000000002 43.907999999999994 72.47600000000001 C 43.513999999999996 72.46700000000001 42.93899999999999 72.45800000000001 42.096999999999994 72.45200000000001 C 41.717999999999996 72.44900000000001 41.37199999999999 72.23100000000001 41.205999999999996 71.89000000000001 C 41.04 71.54900000000002 41.080999999999996 71.14300000000001 41.312 70.84200000000001 L 44.159 67.13900000000001 C 44.202 67.06400000000001 44.243 66.92200000000001 44.243 66.77600000000001 C 44.243 66.352 43.898 66.007 43.474000000000004 66.007 C 43.156000000000006 66.007 42.874 66.19800000000001 42.758 66.494 C 42.738 66.545 42.702000000000005 66.624 42.674 66.672 L 39.498 71.957 C 39.317 72.258 38.992 72.442 38.641 72.442 C 35.437 72.443 32.524 72.467 31.613 72.483 z M 31.304 72.008 C 31.304 72.008 31.304 72.008 31.304 72.008 L 31.304 72.008 z" stroke-linecap="round" />
</g>
<g transform="matrix(1 0 0 1 28.3 0.75)" >
<path style="stroke: none; stroke-width: 1; stroke-dasharray: none; stroke-linecap: butt; stroke-dashoffset: 0; stroke-linejoin: miter; stroke-miterlimit: 4; fill: rgb(237,220,103); fill-rule: nonzero; opacity: 1;" transform=" translate(-78.3, -50.75)" d="M 61.842 52.23 C 64.42099999999999 51.333 65.711 48.193 65.655 44.884 C 65.599 41.576 63.861000000000004 39.165 63.861000000000004 39.165 C 63.861000000000004 39.165 67.298 40.285 69.063 43.738 C 73.93 42.922 87.615 40.215 99 34.063 C 99 34.063 98.459 41.71 92.346 44.1 C 85.394 46.819 74.327 47.743 70.075 48.008 C 70.07600000000001 48.072 70.08500000000001 48.128 70.08500000000001 48.193000000000005 C 70.08500000000001 48.401 70.06200000000001 48.596000000000004 70.051 48.798 C 73.27 49.264 83.273 50.428000000000004 91.44200000000001 48.346000000000004 L 92.93900000000001 47.965 L 92.58300000000001 49.468 C 92.058 51.678000000000004 89.85700000000001 55.857000000000006 85.281 55.857000000000006 C 80.869 55.857000000000006 71.668 53.825 68.87700000000001 53.18500000000001 C 68.78000000000002 53.37300000000001 68.686 53.56400000000001 68.581 53.74300000000001 C 70.589 55.12300000000001 76.117 58.48900000000001 82.642 58.75500000000001 L 84.34299999999999 58.82400000000001 L 83.371 60.222000000000016 C 83.27 60.36700000000002 81.09599999999999 63.42500000000002 77.306 63.42500000000002 C 76.877 63.42500000000002 76.426 63.38600000000002 75.956 63.29900000000002 C 71.839 62.53500000000002 67.46000000000001 58.59600000000002 65.8 56.97400000000002 C 65.61699999999999 57.12600000000002 65.43299999999999 57.271000000000015 65.249 57.408000000000015 C 66.774 59.65000000000001 70.02499999999999 64.41200000000002 71.02499999999999 65.72500000000002 L 71.88999999999999 66.86000000000003 L 70.50299999999999 67.19900000000003 C 70.32599999999998 67.24200000000003 69.50099999999999 67.43000000000002 68.49499999999999 67.43000000000002 C 67.32999999999998 67.43000000000002 65.925 67.17900000000002 65.00399999999999 66.16100000000002 C 63.95299999999999 64.99900000000001 62.23099999999999 61.32400000000001 61.31999999999999 59.28800000000002 C 61.30799999999999 59.29000000000002 61.29299999999999 59.29400000000002 61.28099999999999 59.29600000000002 C 59.20599999999999 59.60400000000002 57.785999999999994 58.18100000000002 57.63599999999999 56.88500000000002 C 57.469 55.427 57.574 53.715 61.842 52.23 z" stroke-linecap="round" />
</g>
<g transform="matrix(1 0 0 1 28.3 0.75)" >
<path style="stroke: none; stroke-width: 1; stroke-dasharray: none; stroke-linecap: butt; stroke-dashoffset: 0; stroke-linejoin: miter; stroke-miterlimit: 4; fill: rgb(31,33,43); fill-rule: nonzero; opacity: 1;" transform=" translate(-78.3, -50.75)" d="M 64.263 66.832 C 63.267 65.731 61.82600000000001 62.815999999999995 60.697 60.337999999999994 C 59.745000000000005 60.33299999999999 58.847 60.035999999999994 58.114000000000004 59.474 C 57.288000000000004 58.840999999999994 56.752 57.939 56.644000000000005 56.998999999999995 C 56.412000000000006 54.992 56.84100000000001 52.910999999999994 61.514 51.285999999999994 C 63.477000000000004 50.602999999999994 64.71000000000001 48.096999999999994 64.656 44.901999999999994 C 64.60600000000001 41.968999999999994 63.065000000000005 39.769999999999996 63.05100000000001 39.74999999999999 C 62.79800000000001 39.398999999999994 62.79900000000001 38.92499999999999 63.05400000000001 38.57599999999999 C 63.31000000000001 38.22599999999999 63.76100000000001 38.080999999999996 64.17200000000001 38.214999999999996 C 64.31900000000002 38.263 67.59500000000001 39.361999999999995 69.59100000000001 42.63399999999999 C 75.20200000000001 41.650999999999996 87.85400000000001 38.949999999999996 98.525 33.18299999999999 C 98.846 33.010999999999996 99.235 33.025999999999996 99.543 33.22299999999999 C 99.85000000000001 33.42099999999999 100.024 33.76999999999999 99.99900000000001 34.13399999999999 C 99.97500000000001 34.471999999999994 99.33600000000001 42.440999999999995 92.712 45.03099999999999 C 88.09 46.837999999999994 81.735 47.864999999999995 76.655 48.43599999999999 C 80.928 48.66799999999999 86.415 48.59599999999999 91.197 47.37599999999999 L 92.694 46.99499999999999 C 93.034 46.90999999999999 93.393 47.00599999999999 93.642 47.25099999999999 C 93.892 47.49599999999999 93.99499999999999 47.85399999999999 93.914 48.19499999999999 L 93.558 49.69799999999999 C 92.971 52.17399999999999 90.48500000000001 56.855999999999995 85.283 56.855999999999995 C 82.175 56.855999999999995 76.789 55.88099999999999 72.828 55.065 C 75.401 56.336 78.86800000000001 57.599 82.683 57.754999999999995 L 84.384 57.824 C 84.749 57.839 85.076 58.050999999999995 85.239 58.378 C 85.402 58.705 85.373 59.094 85.165 59.394 L 84.19200000000001 60.794 C 83.932 61.166 81.531 64.42399999999999 77.308 64.42399999999999 C 76.805 64.42399999999999 76.289 64.37599999999999 75.775 64.28099999999999 C 73.34400000000001 63.82899999999999 70.861 62.37299999999999 68.834 60.873999999999995 C 70.06400000000001 62.66199999999999 71.286 64.414 71.822 65.118 L 72.687 66.253 C 72.892 66.521 72.947 66.875 72.834 67.192 C 72.721 67.50999999999999 72.456 67.75 72.128 67.83 L 70.743 68.16799999999999 C 70.494 68.229 69.598 68.428 68.497 68.428 C 66.672 68.429 65.208 67.877 64.263 66.832 z M 64.422 57.97 C 64.11999999999999 57.525999999999996 64.222 56.923 64.65299999999999 56.604 C 64.823 56.478 64.993 56.344 65.16199999999999 56.204 C 65.55499999999999 55.878 66.13199999999999 55.9 66.499 56.259 C 68.119 57.843 72.30199999999999 61.604 76.137 62.316 C 76.532 62.389 76.925 62.426 77.306 62.426 C 80.259 62.426 82.095 60.249 82.477 59.749 C 75.77300000000001 59.437000000000005 70.135 56.026 68.01400000000001 54.567 C 67.581 54.269 67.45200000000001 53.688 67.71900000000001 53.235 C 67.792 53.111 67.85700000000001 52.982 67.924 52.852 L 67.989 52.726 C 68.19800000000001 52.321 68.65400000000001 52.107 69.101 52.21 C 71.807 52.831 80.969 54.857 85.281 54.857 C 89.162 54.857 91.08000000000001 51.31 91.584 49.342 C 83.187 51.449999999999996 72.878 50.217 69.909 49.788 C 69.397 49.714 69.02600000000001 49.26199999999999 69.054 48.745 L 69.07000000000001 48.513999999999996 C 69.078 48.409 69.087 48.303 69.08500000000001 48.175999999999995 C 69.08300000000001 48.154999999999994 69.07700000000001 48.04599999999999 69.07700000000001 48.023999999999994 C 69.06900000000002 47.489999999999995 69.48200000000001 47.044 70.01500000000001 47.00999999999999 C 74.35900000000001 46.73899999999999 85.19600000000001 45.82199999999999 91.98400000000001 43.16899999999999 C 95.63000000000001 41.74299999999999 97.09200000000001 38.13199999999999 97.66000000000001 35.88799999999999 C 86.67300000000002 41.38599999999999 74.24800000000002 43.88299999999999 69.23100000000001 44.724999999999994 C 68.802 44.79299999999999 68.37400000000001 44.581999999999994 68.17500000000001 44.193999999999996 C 67.617 43.102999999999994 66.864 42.269999999999996 66.12700000000001 41.65 C 66.415 42.574 66.63700000000001 43.666 66.65700000000001 44.867999999999995 C 66.72600000000001 48.943 64.96600000000001 52.202999999999996 62.17300000000001 53.175 L 62.17300000000001 53.175 C 58.37000000000001 54.498 58.516000000000005 55.757999999999996 58.63300000000001 56.769999999999996 C 58.67800000000001 57.162 58.94600000000001 57.589999999999996 59.33300000000001 57.88699999999999 C 59.676000000000016 58.148999999999994 60.26600000000001 58.43299999999999 61.073000000000015 58.318999999999996 C 61.10800000000001 58.31099999999999 61.16300000000002 58.3 61.198000000000015 58.29599999999999 C 61.62700000000002 58.24199999999999 62.055000000000014 58.477999999999994 62.235000000000014 58.87899999999999 C 63.747000000000014 62.25899999999999 65.061 64.72999999999999 65.74800000000002 65.49 C 66.45100000000002 66.26599999999999 67.63100000000001 66.42899999999999 68.49800000000002 66.42899999999999 C 69.26500000000001 66.42899999999999 69.91100000000002 66.30599999999998 70.17000000000002 66.24899999999998 C 69.12 64.856 66.132 60.485 64.422 57.97 z" stroke-linecap="round" />
</g>
<g transform="matrix(1 0 0 1 12.27 21.93)" >
<path style="stroke: none; stroke-width: 1; stroke-dasharray: none; stroke-linecap: butt; stroke-dashoffset: 0; stroke-linejoin: miter; stroke-miterlimit: 4; fill: rgb(237,220,103); fill-rule: nonzero; opacity: 1;" transform=" translate(-62.27, -71.93)" d="M 55.206 71.53 C 55.273 71.488 56.503 71.465 58.021 71.453 L 55.174 67.75 L 55.158 67.725 C 54.984 67.451 54.883 67.12599999999999 54.883 66.77799999999999 C 54.883 65.80099999999999 55.675000000000004 65.00899999999999 56.652 65.00899999999999 C 57.4 65.00899999999999 58.04 65.47299999999998 58.298 66.12999999999998 L 58.309000000000005 66.15899999999998 L 61.486000000000004 71.44399999999997 C 65.19 71.44399999999997 68.74900000000001 71.47699999999998 68.866 71.49399999999997 C 69.076 71.52399999999997 69.796 71.73399999999997 69.766 72.31299999999997 C 69.736 72.89199999999997 64.561 78.85899999999998 64.561 78.85899999999998 L 64.92200000000001 74.83199999999998 L 59.86700000000001 74.92799999999998 L 59.64100000000001 76.91499999999998 C 59.64100000000001 76.91499999999998 55.05600000000001 72.84999999999998 54.84600000000001 72.51999999999998 C 54.636 72.19 54.966 71.68 55.206 71.53 z" stroke-linecap="round" />
</g>
<g transform="matrix(1 0 0 1 12.27 21.93)" >
<path style="stroke: none; stroke-width: 1; stroke-dasharray: none; stroke-linecap: butt; stroke-dashoffset: 0; stroke-linejoin: miter; stroke-miterlimit: 4; fill: rgb(31,33,43); fill-rule: nonzero; opacity: 1;" transform=" translate(-62.27, -71.93)" d="M 64.17 79.778 C 63.771 79.608 63.526 79.2 63.565000000000005 78.768 L 63.827000000000005 75.852 L 60.76200000000001 75.91000000000001 L 60.635000000000005 77.02700000000002 C 60.593 77.39800000000001 60.348000000000006 77.71500000000002 59.999 77.84800000000001 C 59.651 77.98000000000002 59.257000000000005 77.91000000000001 58.978 77.662 C 54.288000000000004 73.504 54.088 73.19000000000001 54.003 73.05600000000001 C 53.794 72.72600000000001 53.729 72.32000000000001 53.821 71.912 C 53.931 71.426 54.275999999999996 70.93100000000001 54.677 70.68100000000001 C 54.677 70.68100000000001 54.678 70.68 54.679 70.68 C 54.878 70.55600000000001 54.96 70.506 56.012 70.47900000000001 L 54.382 68.35900000000001 C 54.364 68.33600000000001 54.330999999999996 68.28600000000002 54.315 68.26100000000001 C 54.033 67.81800000000001 53.884 67.30400000000002 53.884 66.77700000000002 C 53.884 65.25000000000001 55.126 64.00800000000001 56.653 64.00800000000001 C 57.765 64.00800000000001 58.751 64.65700000000001 59.205 65.70500000000001 L 62.053 70.44400000000002 C 64.342 70.44600000000001 68.74199999999999 70.46500000000002 69.008 70.50400000000002 C 69.923 70.63400000000001 70.82 71.31500000000003 70.76599999999999 72.36500000000002 C 70.74699999999999 72.73200000000003 70.71799999999999 73.28700000000002 65.31799999999998 79.51400000000002 C 65.12399999999998 79.73800000000003 64.84599999999999 79.85900000000002 64.56199999999998 79.85900000000002 C 64.429 79.858 64.296 79.832 64.17 79.778 z M 61.486 72.443 C 61.135 72.443 60.809999999999995 72.259 60.629 71.958 L 57.452999999999996 66.673 C 57.42399999999999 66.626 57.388999999999996 66.547 57.36899999999999 66.495 C 57.251999999999995 66.199 56.97099999999999 66.00800000000001 56.65299999999999 66.00800000000001 C 56.22899999999999 66.00800000000001 55.88399999999999 66.35300000000001 55.88399999999999 66.77700000000002 C 55.88399999999999 66.92300000000002 55.92499999999999 67.06600000000002 55.967999999999996 67.14000000000001 L 58.815 70.84300000000002 C 59.046 71.14400000000002 59.086999999999996 71.55000000000001 58.921 71.89100000000002 C 58.754 72.23200000000001 58.409 72.45000000000002 58.03 72.45300000000002 C 57.188 72.45900000000002 56.613 72.46800000000002 56.219 72.47700000000002 C 56.821 73.04000000000002 57.805 73.93300000000002 58.866 74.88400000000001 L 58.874 74.81500000000001 C 58.931000000000004 74.31700000000001 59.347 73.93800000000002 59.849000000000004 73.92800000000001 L 64.905 73.83200000000001 C 65.179 73.83900000000001 65.462 73.94300000000001 65.655 74.15 C 65.849 74.358 65.94500000000001 74.638 65.92 74.921 L 65.839 75.819 C 66.997 74.437 68.013 73.179 68.514 72.48400000000001 C 67.601 72.467 64.689 72.443 61.486 72.443 z M 68.821 72.008 C 68.822 72.008 68.822 72.008 68.821 72.008 L 68.821 72.008 z" stroke-linecap="round" />
</g>
<g transform="matrix(1 0 0 1 -5.42 -15.33)" >
<path style="stroke: none; stroke-width: 1; stroke-dasharray: none; stroke-linecap: butt; stroke-dashoffset: 0; stroke-linejoin: miter; stroke-miterlimit: 4; fill: rgb(31,33,43); fill-rule: nonzero; opacity: 1;" transform=" translate(-44.58, -34.67)" d="M 44.999 34.17 L 44.999 34.17 L 44.065000000000005 34.17 L 44.159000000000006 34.17 C 43.883 34.17 43.659000000000006 34.394 43.659000000000006 34.67 C 43.659000000000006 34.946000000000005 43.883 35.17 44.159000000000006 35.17 C 44.159000000000006 35.17 44.998000000000005 35.17 44.998000000000005 35.17 C 44.998000000000005 35.17 44.998000000000005 35.17 44.999 35.17 C 45.275000000000006 35.17 45.499 34.946000000000005 45.499 34.67 C 45.499 34.394 45.275 34.17 44.999 34.17 z" stroke-linecap="round" />
</g>
<g transform="matrix(1 0 0 1 -5.06 -19.52)" >
<path style="stroke: none; stroke-width: 1; stroke-dasharray: none; stroke-linecap: butt; stroke-dashoffset: 0; stroke-linejoin: miter; stroke-miterlimit: 4; fill: rgb(31,33,43); fill-rule: nonzero; opacity: 1;" transform=" translate(-44.94, -30.48)" d="M 47.289 30.475 L 44.578 25.78 L 41.867000000000004 30.475 L 40.022000000000006 33.67 C 39.63700000000001 34.337 40.118 35.17 40.888000000000005 35.17 L 41.654 35.17 C 41.654 35.17 41.654 35.17 41.655 35.17 C 41.656 35.17 41.655 35.17 41.656 35.17 L 41.672 35.17 L 41.672 35.167 C 41.94 35.158 42.154999999999994 34.940000000000005 42.154999999999994 34.67 C 42.154999999999994 34.4 41.93999999999999 34.183 41.672 34.173 L 41.672 34.17 L 40.89 34.17 L 42.735 30.975 L 44.58 27.78 L 46.425 30.975 L 48.269999999999996 34.17 L 47.51499999999999 34.17 L 47.51499999999999 34.173 C 47.245999999999995 34.181000000000004 47.028999999999996 34.399 47.028999999999996 34.67 C 47.028999999999996 34.941 47.245999999999995 35.160000000000004 47.51499999999999 35.167 L 47.51499999999999 35.17 L 47.52799999999999 35.17 C 47.52799999999999 35.17 47.52799999999999 35.17 47.52899999999999 35.17 C 47.52999999999999 35.17 47.52899999999999 35.17 47.52999999999999 35.17 L 50 35.17 L 47.289 30.475 z" stroke-linecap="round" />
</g>
<g transform="matrix(1 0 0 1 2.3 -28.62)" >
<path style="stroke: none; stroke-width: 1; stroke-dasharray: none; stroke-linecap: butt; stroke-dashoffset: 0; stroke-linejoin: miter; stroke-miterlimit: 4; fill: rgb(31,33,43); fill-rule: nonzero; opacity: 1;" transform=" translate(-52.3, -21.38)" d="M 52.075 21.989 C 52.075 21.989 52.075 21.989 52.075 21.989 C 52.212 22.23 52.517 22.313000000000002 52.757000000000005 22.177 C 52.99700000000001 22.04 53.081 21.735 52.944 21.495 L 52.944 21.495 L 52.482 20.683 L 52.528999999999996 20.765 C 52.391999999999996 20.525000000000002 52.086999999999996 20.441 51.846999999999994 20.578 C 51.60699999999999 20.715 51.522999999999996 21.02 51.66 21.259999999999998 C 51.66 21.26 52.075 21.989 52.075 21.989 z" stroke-linecap="round" />
</g>
<g transform="matrix(1 0 0 1 0 -28.42)" >
<path style="stroke: none; stroke-width: 1; stroke-dasharray: none; stroke-linecap: butt; stroke-dashoffset: 0; stroke-linejoin: miter; stroke-miterlimit: 4; fill: rgb(31,33,43); fill-rule: nonzero; opacity: 1;" transform=" translate(-50, -21.58)" d="M 54.171 23.614 L 54.163 23.619 C 54.074 23.479 53.925999999999995 23.381 53.748 23.381 C 53.471999999999994 23.381 53.248 23.605 53.248 23.881 C 53.248 23.965 53.274 24.041 53.311 24.111 L 53.305 24.114 L 53.689 24.78 L 50 24.78 L 46.311 24.78 L 48.156 21.585 L 50 18.39 L 50.433 19.14 L 50.441 19.136 C 50.528000000000006 19.284 50.682 19.389 50.866 19.389 C 51.142 19.389 51.366 19.165 51.366 18.889 C 51.366 18.798 51.335 18.718 51.293 18.644 L 51.299 18.639999999999997 L 50.866 17.889999999999997 C 50.481 17.222999999999995 49.519 17.222999999999995 49.134 17.889999999999997 L 47.289 21.084999999999997 L 44.578 25.779999999999998 L 50 25.779999999999998 L 55.421 25.779999999999998 L 54.171 23.614 z" stroke-linecap="round" />
</g>
</g>
</g>
</svg>